<svg version="1.1" viewBox="0.0 0.0 319.0 201.0" fill="none" stroke="none" stroke-linecap="square" stroke-miterlimit="10" width="319" height="201" xmlns:xlink="http://www.w3.org/1999/xlink" xmlns="http://www.w3.org/2000/svg"><path fill="#ffffff" d="M0 0L319.0 0L319.0 201.0L0 201.0L0 0Z" fill-rule="nonzero"/><path stroke="#333333" stroke-width="1.0" stroke-linecap="butt" d="M69.5 170.5L308.5 170.5" fill-rule="nonzero"/><path stroke="#cccccc" stroke-width="1.0" stroke-linecap="butt" d="M69.5 137.5L308.5 137.5" fill-rule="nonzero"/><path stroke="#cccccc" stroke-width="1.0" stroke-linecap="butt" d="M69.5 104.5L308.5 104.5" fill-rule="nonzero"/><path stroke="#cccccc" stroke-width="1.0" stroke-linecap="butt" d="M69.5 71.5L308.5 71.5" fill-rule="nonzero"/><clipPath id="id_0"><path d="M69.05 71.25L308.95 71.25L308.95 170.95L69.05 170.95L69.05 71.25Z" clip-rule="nonzero"/></clipPath><path stroke="#000000" stroke-width="2.0" stroke-linecap="butt" stroke-opacity="0.0" clip-path="url(#id_0)" d="M141.0 171.0L94.0 171.0L94.0 96.0C94.0 94.89543 94.89543 94.0 96.0 94.0L139.0 94.0C140.10457 94.0 141.0 94.89543 141.0 96.0Z" fill-rule="nonzero"/><path fill="#4285f4" clip-path="url(#id_0)" d="M141.0 171.0L94.0 171.0L94.0 96.0C94.0 94.89543 94.89543 94.0 96.0 94.0L139.0 94.0C140.10457 94.0 141.0 94.89543 141.0 96.0Z" fill-rule="nonzero"/><path stroke="#000000" stroke-width="2.0" stroke-linecap="butt" stroke-opacity="0.0" clip-path="url(#id_0)" d="M213.0 171.0L166.0 171.0L166.0 95.0C166.0 93.89543 166.89543 93.0 168.0 93.0L211.0 93.0C212.10457 93.0 213.0 93.89543 213.0 95.0Z" fill-rule="nonzero"/><path fill="#4285f4" clip-path="url(#id_0)" d="M213.0 171.0L166.0 171.0L166.0 95.0C166.0 93.89543 166.89543 93.0 168.0 93.0L211.0 93.0C212.10457 93.0 213.0 93.89543 213.0 95.0Z" fill-rule="nonzero"/><path stroke="#000000" stroke-width="2.0" stroke-linecap="butt" stroke-opacity="0.0" clip-path="url(#id_0)" d="M285.0 171.0L238.0 171.0L238.0 85.0C238.0 83.89543 238.89543 83.0 240.0 83.0L283.0 83.0C284.10458 83.0 285.0 83.89543 285.0 85.0Z" fill-rule="nonzero"/><path fill="#4285f4" clip-path="url(#id_0)" d="M285.0 171.0L238.0 171.0L238.0 85.0C238.0 83.89543 238.89543 83.0 240.0 83.0L283.0 83.0C284.10458 83.0 285.0 83.89543 285.0 85.0Z" fill-rule="nonzero"/><path fill="#000000" d="M18.034372 158.5375L18.331247 157.4125Q19.721872 157.77188 20.456247 158.69376Q21.190622 159.61563 21.190622 160.95938Q21.190622 162.35 20.628122 163.225Q20.065622 164.1 19.003122 164.55313Q17.924997 165.00626 16.690622 165.00626Q15.346872 165.00626 14.346872 164.49063Q13.346872 163.975 12.831247 163.0375Q12.315622 162.08438 12.315622 160.94376Q12.315622 159.6625 12.971872 158.7875Q13.628122 157.89688 14.815622 157.55313L15.081247 158.67813Q14.143747 158.975 13.721872 159.55313Q13.284372 160.11563 13.284372 160.975Q13.284372 161.95938 13.768747 162.63126Q14.237497 163.2875 15.034372 163.56876Q15.831247 163.83438 16.690622 163.83438Q17.784372 163.83438 18.596872 163.52188Q19.409372 163.19376 19.815622 162.52188Q20.221872 161.85 20.221872 161.05313Q20.221872 160.1 19.674997 159.44376Q19.128122 158.77188 18.034372 158.5375ZM21.049997 155.83438L12.456247 155.83438L12.456247 154.77188L21.049997 154.77188L21.049997 155.83438ZM13.674997 152.80313L12.456247 152.80313L12.456247 151.74063L13.674997 151.74063L13.674997 152.80313ZM21.049997 152.80313L14.831247 152.80313L14.831247 151.74063L21.049997 151.74063L21.049997 152.80313ZM18.768747 145.74063L18.909372 144.70938Q19.971872 144.88126 20.581247 145.58438Q21.190622 146.2875 21.190622 147.30313Q21.190622 148.58438 20.362497 149.36563Q19.518747 150.13126 17.956247 150.13126Q16.956247 150.13126 16.206247 149.80313Q15.440622 149.45938 15.065622 148.7875Q14.690622 148.1 14.690622 147.2875Q14.690622 146.2875 15.206247 145.64688Q15.706247 144.99063 16.659372 144.80313L16.815622 145.83438Q16.190622 145.975 15.878122 146.35Q15.549997 146.725 15.549997 147.25626Q15.549997 148.05313 16.128122 148.55313Q16.690622 149.05313 17.924997 149.05313Q19.190622 149.05313 19.753122 148.56876Q20.315622 148.08438 20.315622 147.31876Q20.315622 146.69376 19.940622 146.2875Q19.565622 145.86563 18.768747 145.74063ZM21.049997 143.80313L12.456247 143.80313L12.456247 142.74063L17.362497 142.74063L14.831247 140.25626L14.831247 138.88126L17.128122 141.27188L21.049997 138.64688L21.049997 139.94376L17.862497 142.00626L18.581247 142.74063L21.049997 142.74063L21.049997 143.80313ZM20.112497 135.50626L21.034372 135.35Q21.128122 135.80313 21.128122 136.14688Q21.128122 136.725 20.956247 137.0375Q20.768747 137.35 20.471872 137.49063Q20.174997 137.61563 19.221872 137.61563L15.643747 137.61563L15.643747 138.38126L14.831247 138.38126L14.831247 137.61563L13.284372 137.61563L12.659372 136.56876L14.831247 136.56876L14.831247 135.50626L15.643747 135.50626L15.643747 136.56876L19.284372 136.56876Q19.737497 136.56876 19.862497 136.52188Q19.987497 136.45938 20.065622 136.33438Q20.143747 136.20938 20.143747 135.975Q20.143747 135.7875 20.112497 135.50626ZM21.049997 134.80313L12.456247 134.80313L12.456247 133.75626L15.534372 133.75626Q14.690622 133.02188 14.690622 131.89688Q14.690622 131.19376 14.971872 130.69376Q15.237497 130.17813 15.721872 129.95938Q16.190622 129.74063 17.112497 129.74063L21.049997 129.74063L21.049997 130.7875L17.112497 130.7875Q16.315622 130.7875 15.956247 131.13126Q15.596872 131.475 15.596872 132.1Q15.596872 132.56876 15.846872 132.99063Q16.081247 133.39688 16.503122 133.58438Q16.909372 133.75626 17.643747 133.75626L21.049997 133.75626L21.049997 134.80313ZM21.049997 127.81875L14.831247 127.81875L14.831247 126.86562L15.768747 126.86562Q15.112497 126.50625 14.909372 126.20937Q14.690622 125.89687 14.690622 125.52187Q14.690622 124.99062 15.018747 124.44375L16.003122 124.80312Q15.768747 125.19375 15.768747 125.56875Q15.768747 125.92812 15.987497 126.20937Q16.190622 126.475 16.565622 126.58437Q17.128122 126.77187 17.784372 126.77187L21.049997 126.77187L21.049997 127.81875ZM17.940622 124.19375Q16.206247 124.19375 15.378122 123.24062Q14.690622 122.44375 14.690622 121.2875Q14.690622 120.00625 15.534372 119.19375Q16.362497 118.36562 17.846872 118.36562Q19.049997 118.36562 19.737497 118.725Q20.424997 119.08437 20.815622 119.7875Q21.190622 120.475 21.190622 121.2875Q21.190622 122.58437 20.362497 123.39687Q19.518747 124.19375 17.940622 124.19375ZM17.940622 123.11562Q19.128122 123.11562 19.721872 122.6Q20.315622 122.06875 20.315622 121.2875Q20.315622 120.49062 19.721872 119.975Q19.128122 119.45937 17.909372 119.45937Q16.753122 119.45937 16.159372 119.99062Q15.565622 120.50625 15.565622 121.2875Q15.565622 122.06875 16.159372 122.6Q16.737497 123.11562 17.940622 123.11562ZM21.049997 112.725L20.128122 112.725Q21.190622 113.45937 21.190622 114.70937Q21.190622 115.25625 20.987497 115.74062Q20.768747 116.20937 20.456247 116.44375Q20.128122 116.67812 19.659372 116.77187Q19.362497 116.83437 18.674997 116.83437L14.831247 116.83437L14.831247 115.77187L18.284372 115.77187Q19.096872 115.77187 19.393747 115.70937Q19.799997 115.61562 20.049997 115.30312Q20.284372 114.975 20.284372 114.49062Q20.284372 114.02187 20.049997 113.61562Q19.799997 113.19375 19.378122 113.02187Q18.956247 112.83437 18.159372 112.83437L14.831247 112.83437L14.831247 111.7875L21.049997 111.7875L21.049997 112.725ZM21.565622 110.00625L21.721872 108.975Q22.190622 108.9125 22.409372 108.61562Q22.706247 108.225 22.706247 107.55312Q22.706247 106.81875 22.409372 106.42812Q22.112497 106.02187 21.596872 105.88125Q21.268747 105.7875 20.237497 105.80312Q21.049997 106.49062 21.049997 107.52187Q21.049997 108.80312 20.128122 109.50625Q19.190622 110.20937 17.909372 110.20937Q17.018747 110.20937 16.268747 109.89687Q15.503122 109.56875 15.096872 108.95937Q14.690622 108.35 14.690622 107.52187Q14.690622 106.4125 15.581247 105.69375L14.831247 105.69375L14.831247 104.725L20.206247 104.725Q21.659372 104.725 22.268747 105.02187Q22.878122 105.31875 23.221872 105.95937Q23.581247 106.6 23.581247 107.5375Q23.581247 108.64687 23.081247 109.33437Q22.581247 110.02187 21.565622 110.00625ZM17.831247 109.13125Q19.049997 109.13125 19.612497 108.64687Q20.174997 108.1625 20.174997 107.42812Q20.174997 106.69375 19.612497 106.20937Q19.049997 105.70937 17.862497 105.70937Q16.721872 105.70937 16.143747 106.225Q15.565622 106.725 15.565622 107.44375Q15.565622 108.14687 16.143747 108.64687Q16.706247 109.13125 17.831247 109.13125ZM21.049997 102.80312L12.456247 102.80312L12.456247 101.75625L15.534372 101.75625Q14.690622 101.02187 14.690622 99.89687Q14.690622 99.19375 14.971872 98.69375Q15.237497 98.17812 15.721872 97.95937Q16.190622 97.74062 17.112497 97.74062L21.049997 97.74062L21.049997 98.7875L17.112497 98.7875Q16.315622 98.7875 15.956247 99.13125Q15.596872 99.475 15.596872 100.1Q15.596872 100.56875 15.846872 100.99062Q16.081247 101.39687 16.503122 101.58437Q16.909372 101.75625 17.643747 101.75625L21.049997 101.75625L21.049997 102.80312ZM19.190622 96.225L19.034372 95.19375Q19.659372 95.1 19.987497 94.70937Q20.315622 94.30312 20.315622 93.56875Q20.315622 92.85 20.034372 92.50625Q19.737497 92.14687 19.331247 92.14687Q18.971872 92.14687 18.768747 92.45937Q18.628122 92.67812 18.409372 93.5375Q18.112497 94.69375 17.909372 95.14687Q17.690622 95.58437 17.315622 95.81875Q16.940622 96.05312 16.471872 96.05312Q16.065622 96.05312 15.706247 95.86562Q15.346872 95.67812 15.112497 95.35Q14.940622 95.1 14.815622 94.67812Q14.690622 94.25625 14.690622 93.75625Q14.690622 93.0375 14.909372 92.49062Q15.112497 91.92812 15.471872 91.6625Q15.831247 91.39687 16.424997 91.30312L16.565622 92.33437Q16.096872 92.39687 15.831247 92.74062Q15.549997 93.06875 15.549997 93.69375Q15.549997 94.4125 15.799997 94.725Q16.034372 95.0375 16.362497 95.0375Q16.565622 95.0375 16.721872 94.9125Q16.893747 94.77187 17.003122 94.50625Q17.065622 94.35 17.268747 93.56875Q17.581247 92.44375 17.768747 92.00625Q17.956247 91.56875 18.315622 91.31875Q18.674997 91.06875 19.221872 91.06875Q19.753122 91.06875 20.221872 91.38125Q20.674997 91.67812 20.940622 92.25625Q21.190622 92.83437 21.190622 93.56875Q21.190622 94.7875 20.690622 95.42812Q20.174997 96.05312 19.190622 96.225Z" fill-rule="nonzero"/><path fill="#000000" d="M56.55 170.71562Q56.55 169.18437 56.8625 168.2625Q57.175 167.325 57.784374 166.825Q58.409374 166.325 59.346874 166.325Q60.034374 166.325 60.55 166.60625Q61.08125 166.8875 61.425 167.41875Q61.76875 167.93437 61.95625 168.68437Q62.14375 169.43437 62.14375 170.71562Q62.14375 172.23125 61.83125 173.15312Q61.534374 174.075 60.909374 174.59062Q60.3 175.09062 59.346874 175.09062Q58.1125 175.09062 57.39375 174.2Q56.55 173.1375 56.55 170.71562ZM57.628124 170.71562Q57.628124 172.825 58.128124 173.52812Q58.628124 174.23125 59.346874 174.23125Q60.08125 174.23125 60.565624 173.52812Q61.065624 172.825 61.065624 170.71562Q61.065624 168.59062 60.565624 167.90312Q60.08125 167.2 59.33125 167.2Q58.6125 167.2 58.175 167.80937Q57.628124 168.59062 57.628124 170.71562Z" fill-rule="nonzero"/><path fill="#000000" d="M48.096874 140.70103L48.096874 141.71666L42.409374 141.71666Q42.409374 141.34166 42.534374 140.98228Q42.753124 140.40416 43.221874 139.84166Q43.70625 139.27916 44.6125 138.54478Q46.01875 137.38853 46.503124 136.71666Q47.003124 136.04478 47.003124 135.45103Q47.003124 134.82603 46.55 134.40416Q46.096874 133.96666 45.378124 133.96666Q44.6125 133.96666 44.159374 134.41978Q43.70625 134.87291 43.690624 135.68541L42.6125 135.57603Q42.721874 134.35728 43.440624 133.73228Q44.175 133.09166 45.409374 133.09166Q46.64375 133.09166 47.3625 133.77916Q48.08125 134.46666 48.08125 135.48228Q48.08125 135.99791 47.8625 136.49791Q47.659374 136.98228 47.159374 137.54478Q46.675 138.09166 45.55 139.04478Q44.596874 139.84166 44.315624 140.13853Q44.05 140.41978 43.878124 140.70103L48.096874 140.70103ZM49.55 137.48228Q49.55 135.95103 49.8625 135.02916Q50.175 134.09166 50.784374 133.59166Q51.409374 133.09166 52.346874 133.09166Q53.034374 133.09166 53.55 133.37291Q54.08125 133.65416 54.425 134.18541Q54.76875 134.70103 54.95625 135.45103Q55.14375 136.20103 55.14375 137.48228Q55.14375 138.99791 54.83125 139.91978Q54.534374 140.84166 53.909374 141.35728Q53.3 141.85728 52.346874 141.85728Q51.1125 141.85728 50.39375 140.96666Q49.55 139.90416 49.55 137.48228ZM50.628124 137.48228Q50.628124 139.59166 51.128124 140.29478Q51.628124 140.99791 52.346874 140.99791Q53.08125 140.99791 53.565624 140.29478Q54.065624 139.59166 54.065624 137.48228Q54.065624 135.35728 53.565624 134.66978Q53.08125 133.96666 52.33125 133.96666Q51.6125 133.96666 51.175 134.57603Q50.628124 135.35728 50.628124 137.48228ZM56.55 137.48228Q56.55 135.95103 56.8625 135.02916Q57.175 134.09166 57.784374 133.59166Q58.409374 133.09166 59.346874 133.09166Q60.034374 133.09166 60.55 133.37291Q61.08125 133.65416 61.425 134.18541Q61.76875 134.70103 61.95625 135.45103Q62.14375 136.20103 62.14375 137.48228Q62.14375 138.99791 61.83125 139.91978Q61.534374 140.84166 60.909374 141.35728Q60.3 141.85728 59.346874 141.85728Q58.1125 141.85728 57.39375 140.96666Q56.55 139.90416 56.55 137.48228ZM57.628124 137.48228Q57.628124 139.59166 58.128124 140.29478Q58.628124 140.99791 59.346874 140.99791Q60.08125 140.99791 60.565624 140.29478Q61.065624 139.59166 61.065624 137.48228Q61.065624 135.35728 60.565624 134.66978Q60.08125 133.96666 59.33125 133.96666Q58.6125 133.96666 58.175 134.57603Q57.628124 135.35728 57.628124 137.48228Z" fill-rule="nonzero"/><path fill="#000000" d="M45.925 108.48333L45.925 106.42083L42.20625 106.42083L42.20625 105.45208L46.128124 99.88958L46.9875 99.88958L46.9875 105.45208L48.14375 105.45208L48.14375 106.42083L46.9875 106.42083L46.9875 108.48333L45.925 108.48333ZM45.925 105.45208L45.925 101.592705L43.2375 105.45208L45.925 105.45208ZM49.55 104.248955Q49.55 102.717705 49.8625 101.79583Q50.175 100.85833 50.784374 100.35833Q51.409374 99.85833 52.346874 99.85833Q53.034374 99.85833 53.55 100.13958Q54.08125 100.42083 54.425 100.95208Q54.76875 101.467705 54.95625 102.217705Q55.14375 102.967705 55.14375 104.248955Q55.14375 105.76458 54.83125 106.686455Q54.534374 107.60833 53.909374 108.123955Q53.3 108.623955 52.346874 108.623955Q51.1125 108.623955 50.39375 107.73333Q49.55 106.67083 49.55 104.248955ZM50.628124 104.248955Q50.628124 106.35833 51.128124 107.061455Q51.628124 107.76458 52.346874 107.76458Q53.08125 107.76458 53.565624 107.061455Q54.065624 106.35833 54.065624 104.248955Q54.065624 102.123955 53.565624 101.436455Q53.08125 100.73333 52.33125 100.73333Q51.6125 100.73333 51.175 101.342705Q50.628124 102.123955 50.628124 104.248955ZM56.55 104.248955Q56.55 102.717705 56.8625 101.79583Q57.175 100.85833 57.784374 100.35833Q58.409374 99.85833 59.346874 99.85833Q60.034374 99.85833 60.55 100.13958Q61.08125 100.42083 61.425 100.95208Q61.76875 101.467705 61.95625 102.217705Q62.14375 102.967705 62.14375 104.248955Q62.14375 105.76458 61.83125 106.686455Q61.534374 107.60833 60.909374 108.123955Q60.3 108.623955 59.346874 108.623955Q58.1125 108.623955 57.39375 107.73333Q56.55 106.67083 56.55 104.248955ZM57.628124 104.248955Q57.628124 106.35833 58.128124 107.061455Q58.628124 107.76458 59.346874 107.76458Q60.08125 107.76458 60.565624 107.061455Q61.065624 106.35833 61.065624 104.248955Q61.065624 102.123955 60.565624 101.436455Q60.08125 100.73333 59.33125 100.73333Q58.6125 100.73333 58.175 101.342705Q57.628124 102.123955 57.628124 104.248955Z" fill-rule="nonzero"/><path fill="#000000" d="M48.01875 68.765625L46.971874 68.84375Q46.83125 68.21875 46.58125 67.9375Q46.14375 67.484375 45.51875 67.484375Q45.01875 67.484375 44.628124 67.765625Q44.14375 68.140625 43.846874 68.84375Q43.565624 69.53125 43.55 70.8125Q43.925 70.234375 44.471874 69.953125Q45.034374 69.671875 45.64375 69.671875Q46.690624 69.671875 47.425 70.453125Q48.175 71.234375 48.175 72.453125Q48.175 73.265625 47.815624 73.96875Q47.471874 74.65625 46.8625 75.03125Q46.253124 75.390625 45.4875 75.390625Q44.159374 75.390625 43.33125 74.421875Q42.503124 73.453125 42.503124 71.234375Q42.503124 68.734375 43.425 67.609375Q44.221874 66.625 45.58125 66.625Q46.596874 66.625 47.2375 67.203125Q47.89375 67.765625 48.01875 68.765625ZM43.721874 72.46875Q43.721874 73.015625 43.940624 73.515625Q44.175 74.0 44.58125 74.265625Q45.003124 74.53125 45.471874 74.53125Q46.128124 74.53125 46.6125 74.0Q47.096874 73.453125 47.096874 72.53125Q47.096874 71.640625 46.6125 71.125Q46.14375 70.609375 45.425 70.609375Q44.70625 70.609375 44.20625 71.125Q43.721874 71.640625 43.721874 72.46875ZM49.55 71.015625Q49.55 69.484375 49.8625 68.5625Q50.175 67.625 50.784374 67.125Q51.409374 66.625 52.346874 66.625Q53.034374 66.625 53.55 66.90625Q54.08125 67.1875 54.425 67.71875Q54.76875 68.234375 54.95625 68.984375Q55.14375 69.734375 55.14375 71.015625Q55.14375 72.53125 54.83125 73.453125Q54.534374 74.375 53.909374 74.890625Q53.3 75.390625 52.346874 75.390625Q51.1125 75.390625 50.39375 74.5Q49.55 73.4375 49.55 71.015625ZM50.628124 71.015625Q50.628124 73.125 51.128124 73.828125Q51.628124 74.53125 52.346874 74.53125Q53.08125 74.53125 53.565624 73.828125Q54.065624 73.125 54.065624 71.015625Q54.065624 68.890625 53.565624 68.203125Q53.08125 67.5 52.33125 67.5Q51.6125 67.5 51.175 68.109375Q50.628124 68.890625 50.628124 71.015625ZM56.55 71.015625Q56.55 69.484375 56.8625 68.5625Q57.175 67.625 57.784374 67.125Q58.409374 66.625 59.346874 66.625Q60.034374 66.625 60.55 66.90625Q61.08125 67.1875 61.425 67.71875Q61.76875 68.234375 61.95625 68.984375Q62.14375 69.734375 62.14375 71.015625Q62.14375 72.53125 61.83125 73.453125Q61.534374 74.375 60.909374 74.890625Q60.3 75.390625 59.346874 75.390625Q58.1125 75.390625 57.39375 74.5Q56.55 73.4375 56.55 71.015625ZM57.628124 71.015625Q57.628124 73.125 58.128124 73.828125Q58.628124 74.53125 59.346874 74.53125Q60.08125 74.53125 60.565624 73.828125Q61.065624 73.125 61.065624 71.015625Q61.065624 68.890625 60.565624 68.203125Q60.08125 67.5 59.33125 67.5Q58.6125 67.5 58.175 68.109375Q57.628124 68.890625 57.628124 71.015625Z" fill-rule="nonzero"/><path fill="#000000" d="M102.49744 187.95L102.49744 180.37187L99.66931 180.37187L99.66931 179.35625L106.48181 179.35625L106.48181 180.37187L103.63806 180.37187L103.63806 187.95L102.49744 187.95ZM108.32556 187.95L106.41931 181.73125L107.51306 181.73125L108.49744 185.325L108.87244 186.65312Q108.90369 186.55937 109.20056 185.37187L110.18494 181.73125L111.26306 181.73125L112.20056 185.34062L112.51306 186.52812L112.87244 185.325L113.93494 181.73125L114.96619 181.73125L113.01306 187.95L111.91931 187.95L110.93494 184.21562L110.68494 183.16875L109.43494 187.95L108.32556 187.95ZM116.18494 180.575L116.18494 179.35625L117.24744 179.35625L117.24744 180.575L116.18494 180.575ZM116.18494 187.95L116.18494 181.73125L117.24744 181.73125L117.24744 187.95L116.18494 187.95ZM121.48181 187.0125L121.63806 187.93437Q121.18494 188.02812 120.84119 188.02812Q120.26306 188.02812 119.95056 187.85625Q119.63806 187.66875 119.49744 187.37187Q119.37244 187.075 119.37244 186.12187L119.37244 182.54375L118.60681 182.54375L118.60681 181.73125L119.37244 181.73125L119.37244 180.18437L120.41931 179.55937L120.41931 181.73125L121.48181 181.73125L121.48181 182.54375L120.41931 182.54375L120.41931 186.18437Q120.41931 186.6375 120.46619 186.7625Q120.52869 186.8875 120.65369 186.96562Q120.77869 187.04375 121.01306 187.04375Q121.20056 187.04375 121.48181 187.0125ZM124.48181 187.0125L124.63806 187.93437Q124.18494 188.02812 123.84119 188.02812Q123.26306 188.02812 122.95056 187.85625Q122.63806 187.66875 122.49744 187.37187Q122.37244 187.075 122.37244 186.12187L122.37244 182.54375L121.60681 182.54375L121.60681 181.73125L122.37244 181.73125L122.37244 180.18437L123.41931 179.55937L123.41931 181.73125L124.48181 181.73125L124.48181 182.54375L123.41931 182.54375L123.41931 186.18437Q123.41931 186.6375 123.46619 186.7625Q123.52869 186.8875 123.65369 186.96562Q123.77869 187.04375 124.01306 187.04375Q124.20056 187.04375 124.48181 187.0125ZM129.43494 185.95L130.52869 186.075Q130.27869 187.02812 129.57556 187.55937Q128.87244 188.09062 127.79431 188.09062Q126.43494 188.09062 125.62244 187.24687Q124.82556 186.40312 124.82556 184.8875Q124.82556 183.325 125.63806 182.46562Q126.45056 181.59062 127.73181 181.59062Q128.98181 181.59062 129.76306 182.43437Q130.55994 183.27812 130.55994 184.825Q130.55994 184.91875 130.55994 185.10625L125.91931 185.10625Q125.98181 186.1375 126.49744 186.68437Q127.01306 187.21562 127.79431 187.21562Q128.37244 187.21562 128.77869 186.91875Q129.20056 186.60625 129.43494 185.95ZM125.98181 184.24687L129.45056 184.24687Q129.38806 183.45 129.05994 183.05937Q128.54431 182.45 127.74744 182.45Q127.01306 182.45 126.51306 182.93437Q126.02869 183.41875 125.98181 184.24687ZM132.16931 187.95L132.16931 181.73125L133.12244 181.73125L133.12244 182.66875Q133.48181 182.0125 133.77869 181.80937Q134.09119 181.59062 134.46619 181.59062Q134.99744 181.59062 135.54431 181.91875L135.18494 182.90312Q134.79431 182.66875 134.41931 182.66875Q134.05994 182.66875 133.77869 182.8875Q133.51306 183.09062 133.40369 183.46562Q133.21619 184.02812 133.21619 184.68437L133.21619 187.95L132.16931 187.95Z" fill-rule="nonzero"/><path fill="#000000" d="M166.375 187.95L166.375 179.35625L167.51562 179.35625L167.51562 186.93437L171.75 186.93437L171.75 187.95L166.375 187.95ZM173.29688 180.575L173.29688 179.35625L174.35938 179.35625L174.35938 180.575L173.29688 180.575ZM173.29688 187.95L173.29688 181.73125L174.35938 181.73125L174.35938 187.95L173.29688 187.95ZM176.29688 187.95L176.29688 181.73125L177.23438 181.73125L177.23438 182.60625Q177.92188 181.59062 179.21875 181.59062Q179.78125 181.59062 180.25 181.79375Q180.73438 181.99687 180.96875 182.325Q181.20312 182.65312 181.29688 183.09062Q181.34375 183.3875 181.34375 184.12187L181.34375 187.95L180.29688 187.95L180.29688 184.16875Q180.29688 183.5125 180.17188 183.2Q180.04688 182.8875 179.73438 182.7Q179.42188 182.49687 179.0 182.49687Q178.32812 182.49687 177.82812 182.93437Q177.34375 183.35625 177.34375 184.54375L177.34375 187.95L176.29688 187.95ZM183.29688 187.95L183.29688 179.35625L184.35938 179.35625L184.35938 184.2625L186.84375 181.73125L188.21875 181.73125L185.82812 184.02812L188.45312 187.95L187.15625 187.95L185.09375 184.7625L184.35938 185.48125L184.35938 187.95L183.29688 187.95ZM193.54688 185.95L194.64062 186.075Q194.39062 187.02812 193.6875 187.55937Q192.98438 188.09062 191.90625 188.09062Q190.54688 188.09062 189.73438 187.24687Q188.9375 186.40312 188.9375 184.8875Q188.9375 183.325 189.75 182.46562Q190.5625 181.59062 191.84375 181.59062Q193.09375 181.59062 193.875 182.43437Q194.67188 183.27812 194.67188 184.825Q194.67188 184.91875 194.67188 185.10625L190.03125 185.10625Q190.09375 186.1375 190.60938 186.68437Q191.125 187.21562 191.90625 187.21562Q192.48438 187.21562 192.89062 186.91875Q193.3125 186.60625 193.54688 185.95ZM190.09375 184.24687L193.5625 184.24687Q193.5 183.45 193.17188 183.05937Q192.65625 182.45 191.85938 182.45Q191.125 182.45 190.625 182.93437Q190.14062 183.41875 190.09375 184.24687ZM200.32812 187.95L200.32812 187.16875Q199.73438 188.09062 198.59375 188.09062Q197.84375 188.09062 197.21875 187.68437Q196.59375 187.2625 196.25 186.52812Q195.90625 185.79375 195.90625 184.84062Q195.90625 183.91875 196.21875 183.15312Q196.53125 182.3875 197.15625 181.99687Q197.78125 181.59062 198.54688 181.59062Q199.10938 181.59062 199.54688 181.825Q199.98438 182.05937 200.26562 182.43437L200.26562 179.35625L201.3125 179.35625L201.3125 187.95L200.32812 187.95ZM197.0 184.84062Q197.0 186.04375 197.5 186.6375Q198.0 187.21562 198.6875 187.21562Q199.375 187.21562 199.85938 186.65312Q200.34375 186.09062 200.34375 184.93437Q200.34375 183.65312 199.84375 183.05937Q199.35938 182.46562 198.64062 182.46562Q197.9375 182.46562 197.46875 183.04375Q197.0 183.60625 197.0 184.84062ZM203.625 187.95L203.625 179.35625L204.75 179.35625L204.75 187.95L203.625 187.95ZM206.29688 187.95L206.29688 181.73125L207.23438 181.73125L207.23438 182.60625Q207.92188 181.59062 209.21875 181.59062Q209.78125 181.59062 210.25 181.79375Q210.73438 181.99687 210.96875 182.325Q211.20312 182.65312 211.29688 183.09062Q211.34375 183.3875 211.34375 184.12187L211.34375 187.95L210.29688 187.95L210.29688 184.16875Q210.29688 183.5125 210.17188 183.2Q210.04688 182.8875 209.73438 182.7Q209.42188 182.49687 209.0 182.49687Q208.32812 182.49687 207.82812 182.93437Q207.34375 183.35625 207.34375 184.54375L207.34375 187.95L206.29688 187.95Z" fill-rule="nonzero"/><path fill="#000000" d="M243.54944 187.95L243.54944 179.35625L247.36194 179.35625Q248.51819 179.35625 249.11194 179.59062Q249.70569 179.825 250.06506 180.41875Q250.42444 180.99687 250.42444 181.7Q250.42444 182.62187 249.83069 183.24687Q249.23694 183.87187 248.00256 184.04375Q248.45569 184.2625 248.69006 184.46562Q249.19006 184.91875 249.62756 185.60625L251.12756 187.95L249.69006 187.95L248.56506 186.16875Q248.06506 185.3875 247.73694 184.98125Q247.42444 184.575 247.15881 184.41875Q246.90881 184.24687 246.64319 184.16875Q246.45569 184.1375 246.01819 184.1375L244.69006 184.1375L244.69006 187.95L243.54944 187.95ZM244.69006 183.15312L247.14319 183.15312Q247.90881 183.15312 248.34631 182.99687Q248.79944 182.825 249.01819 182.48125Q249.25256 182.12187 249.25256 181.7Q249.25256 181.09062 248.79944 180.7Q248.36194 180.30937 247.40881 180.30937L244.69006 180.30937L244.69006 183.15312ZM256.6588 185.95L257.75256 186.075Q257.50256 187.02812 256.79944 187.55937Q256.0963 188.09062 255.01819 188.09062Q253.65881 188.09062 252.84631 187.24687Q252.04944 186.40312 252.04944 184.8875Q252.04944 183.325 252.86194 182.46562Q253.67444 181.59062 254.95569 181.59062Q256.2057 181.59062 256.98694 182.43437Q257.7838 183.27812 257.7838 184.825Q257.7838 184.91875 257.7838 185.10625L253.14319 185.10625Q253.20569 186.1375 253.72131 186.68437Q254.23694 187.21562 255.01819 187.21562Q255.59631 187.21562 256.00256 186.91875Q256.42444 186.60625 256.6588 185.95ZM253.20569 184.24687L256.67444 184.24687Q256.61194 183.45 256.2838 183.05937Q255.76819 182.45 254.97131 182.45Q254.23694 182.45 253.73694 182.93437Q253.25256 183.41875 253.20569 184.24687ZM263.44006 187.95L263.44006 187.16875Q262.8463 188.09062 261.7057 188.09062Q260.9557 188.09062 260.3307 187.68437Q259.7057 187.2625 259.36194 186.52812Q259.0182 185.79375 259.0182 184.84062Q259.0182 183.91875 259.3307 183.15312Q259.6432 182.3875 260.2682 181.99687Q260.8932 181.59062 261.6588 181.59062Q262.2213 181.59062 262.6588 181.825Q263.0963 182.05937 263.37756 182.43437L263.37756 179.35625L264.42444 179.35625L264.42444 187.95L263.44006 187.95ZM260.11194 184.84062Q260.11194 186.04375 260.61194 186.6375Q261.11194 187.21562 261.79944 187.21562Q262.48694 187.21562 262.9713 186.65312Q263.4557 186.09062 263.4557 184.93437Q263.4557 183.65312 262.9557 183.05937Q262.4713 182.46562 261.75256 182.46562Q261.04944 182.46562 260.5807 183.04375Q260.11194 183.60625 260.11194 184.84062ZM270.44006 187.95L270.44006 187.16875Q269.8463 188.09062 268.7057 188.09062Q267.9557 188.09062 267.3307 187.68437Q266.7057 187.2625 266.36194 186.52812Q266.0182 185.79375 266.0182 184.84062Q266.0182 183.91875 266.3307 183.15312Q266.6432 182.3875 267.2682 181.99687Q267.8932 181.59062 268.6588 181.59062Q269.2213 181.59062 269.6588 181.825Q270.0963 182.05937 270.37756 182.43437L270.37756 179.35625L271.42444 179.35625L271.42444 187.95L270.44006 187.95ZM267.11194 184.84062Q267.11194 186.04375 267.61194 186.6375Q268.11194 187.21562 268.79944 187.21562Q269.48694 187.21562 269.9713 186.65312Q270.4557 186.09062 270.4557 184.93437Q270.4557 183.65312 269.9557 183.05937Q269.4713 182.46562 268.75256 182.46562Q268.04944 182.46562 267.5807 183.04375Q267.11194 183.60625 267.11194 184.84062ZM273.4088 180.575L273.4088 179.35625L274.4713 179.35625L274.4713 180.575L273.4088 180.575ZM273.4088 187.95L273.4088 181.73125L274.4713 181.73125L274.4713 187.95L273.4088 187.95ZM278.7057 187.0125L278.86194 187.93437Q278.4088 188.02812 278.06506 188.02812Q277.48694 188.02812 277.17444 187.85625Q276.86194 187.66875 276.7213 187.37187Q276.5963 187.075 276.5963 186.12187L276.5963 182.54375L275.8307 182.54375L275.8307 181.73125L276.5963 181.73125L276.5963 180.18437L277.6432 179.55937L277.6432 181.73125L278.7057 181.73125L278.7057 182.54375L277.6432 182.54375L277.6432 186.18437Q277.6432 186.6375 277.69006 186.7625Q277.75256 186.8875 277.87756 186.96562Q278.00256 187.04375 278.23694 187.04375Q278.42444 187.04375 278.7057 187.0125Z" fill-rule="nonzero"/><path fill="#999999" d="M11.128125 54.55L11.128125 44.534374L14.909375 44.534374Q15.909375 44.534374 16.440624 44.628124Q17.175 44.753124 17.675 45.096874Q18.175 45.440624 18.471874 46.065624Q18.784374 46.675 18.784374 47.425Q18.784374 48.70625 17.971874 49.596874Q17.159374 50.471874 15.034375 50.471874L12.45625 50.471874L12.45625 54.55L11.128125 54.55ZM12.45625 49.3L15.05 49.3Q16.33125 49.3 16.8625 48.815624Q17.409374 48.33125 17.409374 47.471874Q17.409374 46.83125 17.096874 46.39375Q16.784374 45.940624 16.253124 45.8Q15.925 45.70625 15.01875 45.70625L12.45625 45.70625L12.45625 49.3ZM24.940624 52.20625L26.221874 52.3625Q25.909374 53.4875 25.096874 54.1125Q24.284374 54.721874 23.01875 54.721874Q21.425 54.721874 20.4875 53.7375Q19.565624 52.753124 19.565624 50.9875Q19.565624 49.14375 20.503124 48.14375Q21.45625 47.128124 22.95625 47.128124Q24.409374 47.128124 25.33125 48.128124Q26.253124 49.1125 26.253124 50.909374Q26.253124 51.01875 26.253124 51.2375L20.83125 51.2375Q20.909374 52.425 21.503124 53.065624Q22.1125 53.70625 23.034374 53.70625Q23.70625 53.70625 24.175 53.346874Q24.659374 52.9875 24.940624 52.20625ZM20.909374 50.221874L24.95625 50.221874Q24.878124 49.3 24.4875 48.846874Q23.909374 48.14375 22.971874 48.14375Q22.1125 48.14375 21.534374 48.70625Q20.971874 49.26875 20.909374 50.221874ZM27.51875 50.925Q27.51875 48.909374 28.64375 47.925Q29.565624 47.128124 30.925 47.128124Q32.409374 47.128124 33.3625 48.1125Q34.315624 49.08125 34.315624 50.815624Q34.315624 52.221874 33.89375 53.034374Q33.471874 53.83125 32.659374 54.284374Q31.8625 54.721874 30.925 54.721874Q29.39375 54.721874 28.45625 53.7375Q27.51875 52.753124 27.51875 50.925ZM28.784374 50.925Q28.784374 52.315624 29.39375 53.01875Q30.003124 53.70625 30.925 53.70625Q31.83125 53.70625 32.440624 53.003124Q33.05 52.3 33.05 50.878124Q33.05 49.534374 32.440624 48.846874Q31.83125 48.14375 30.925 48.14375Q30.003124 48.14375 29.39375 48.83125Q28.784374 49.51875 28.784374 50.925ZM35.971874 57.33125L35.971874 47.284374L37.096874 47.284374L37.096874 48.2375Q37.4875 47.675 37.9875 47.409374Q38.4875 47.128124 39.20625 47.128124Q40.128124 47.128124 40.83125 47.6125Q41.55 48.08125 41.909374 48.95625Q42.26875 49.83125 42.26875 50.8625Q42.26875 51.971874 41.8625 52.878124Q41.471874 53.76875 40.70625 54.253124Q39.95625 54.721874 39.1125 54.721874Q38.503124 54.721874 38.003124 54.45625Q37.51875 54.190624 37.20625 53.8L37.20625 57.33125L35.971874 57.33125ZM37.08125 50.95625Q37.08125 52.3625 37.64375 53.034374Q38.221874 53.70625 39.034374 53.70625Q39.846874 53.70625 40.425 53.01875Q41.01875 52.315624 41.01875 50.8625Q41.01875 49.471874 40.440624 48.784374Q39.878124 48.096874 39.08125 48.096874Q38.3 48.096874 37.690624 48.83125Q37.08125 49.565624 37.08125 50.95625ZM43.940624 54.55L43.940624 44.534374L45.175 44.534374L45.175 54.55L43.940624 54.55ZM51.940624 52.20625L53.221874 52.3625Q52.909374 53.4875 52.096874 54.1125Q51.284374 54.721874 50.01875 54.721874Q48.425 54.721874 47.4875 53.7375Q46.565624 52.753124 46.565624 50.9875Q46.565624 49.14375 47.503124 48.14375Q48.45625 47.128124 49.95625 47.128124Q51.409374 47.128124 52.33125 48.128124Q53.253124 49.1125 53.253124 50.909374Q53.253124 51.01875 53.253124 51.2375L47.83125 51.2375Q47.909374 52.425 48.503124 53.065624Q49.1125 53.70625 50.034374 53.70625Q50.70625 53.70625 51.175 53.346874Q51.659374 52.9875 51.940624 52.20625ZM47.909374 50.221874L51.95625 50.221874Q51.878124 49.3 51.4875 48.846874Q50.909374 48.14375 49.971874 48.14375Q49.1125 48.14375 48.534374 48.70625Q47.971874 49.26875 47.909374 50.221874ZM61.659374 53.45625L61.83125 54.534374Q61.315624 54.64375 60.909374 54.64375Q60.2375 54.64375 59.8625 54.440624Q59.503124 54.221874 59.346874 53.878124Q59.20625 53.534374 59.20625 52.425L59.20625 48.253124L58.3 48.253124L58.3 47.284374L59.20625 47.284374L59.20625 45.4875L60.425 44.753124L60.425 47.284374L61.659374 47.284374L61.659374 48.253124L60.425 48.253124L60.425 52.4875Q60.425 53.01875 60.4875 53.175Q60.55 53.315624 60.690624 53.409374Q60.846874 53.503124 61.1125 53.503124Q61.33125 53.503124 61.659374 53.45625ZM62.971874 54.55L62.971874 44.534374L64.20625 44.534374L64.20625 48.128124Q65.06563 47.128124 66.37813 47.128124Q67.19063 47.128124 67.78438 47.45625Q68.37813 47.76875 68.62813 48.33125Q68.89375 48.878124 68.89375 49.95625L68.89375 54.55L67.65938 54.55L67.65938 49.95625Q67.65938 49.01875 67.25313 48.6125Q66.8625 48.190624 66.12813 48.190624Q65.58125 48.190624 65.09688 48.471874Q64.6125 48.753124 64.40938 49.2375Q64.20625 49.721874 64.20625 50.58125L64.20625 54.55L62.971874 54.55ZM75.70625 53.659374Q75.03438 54.2375 74.39375 54.4875Q73.76875 54.721874 73.03438 54.721874Q71.84688 54.721874 71.19063 54.14375Q70.55 53.55 70.55 52.628124Q70.55 52.096874 70.78438 51.659374Q71.03438 51.221874 71.425 50.95625Q71.83125 50.690624 72.31563 50.55Q72.675 50.45625 73.40938 50.3625Q74.90938 50.190624 75.6125 49.940624Q75.6125 49.690624 75.6125 49.628124Q75.6125 48.8625 75.26875 48.565624Q74.8 48.14375 73.8625 48.14375Q73.00313 48.14375 72.58125 48.45625Q72.175 48.753124 71.97188 49.51875L70.76875 49.3625Q70.925 48.58125 71.3 48.1125Q71.69063 47.64375 72.39375 47.39375Q73.1125 47.128124 74.05 47.128124Q74.97188 47.128124 75.55 47.346874Q76.12813 47.565624 76.39375 47.89375Q76.675 48.221874 76.78438 48.7375Q76.84688 49.05 76.84688 49.8625L76.84688 51.503124Q76.84688 53.221874 76.925 53.675Q77.00313 54.128124 77.2375 54.55L75.95625 54.55Q75.76875 54.159374 75.70625 53.659374ZM75.6125 50.909374Q74.94063 51.175 73.59688 51.378124Q72.84688 51.4875 72.51875 51.628124Q72.20625 51.753124 72.03438 52.01875Q71.8625 52.284374 71.8625 52.596874Q71.8625 53.096874 72.2375 53.425Q72.6125 53.753124 73.33125 53.753124Q74.05 53.753124 74.59688 53.440624Q75.14375 53.128124 75.40938 52.58125Q75.6125 52.175 75.6125 51.3625L75.6125 50.909374ZM81.65938 53.45625L81.83125 54.534374Q81.31563 54.64375 80.90938 54.64375Q80.2375 54.64375 79.8625 54.440624Q79.50313 54.221874 79.34688 53.878124Q79.20625 53.534374 79.20625 52.425L79.20625 48.253124L78.3 48.253124L78.3 47.284374L79.20625 47.284374L79.20625 45.4875L80.425 44.753124L80.425 47.284374L81.65938 47.284374L81.65938 48.253124L80.425 48.253124L80.425 52.4875Q80.425 53.01875 80.4875 53.175Q80.55 53.315624 80.69063 53.409374Q80.84688 53.503124 81.1125 53.503124Q81.33125 53.503124 81.65938 53.45625ZM88.31563 54.55L86.09688 47.284374L87.3625 47.284374L88.51875 51.4875L88.95625 53.034374Q88.97188 52.925 89.33125 51.534374L90.4875 47.284374L91.7375 47.284374L92.83125 51.503124L93.19063 52.89375L93.6125 51.4875L94.8625 47.284374L96.05 47.284374L93.78438 54.55L92.50313 54.55L91.34688 50.20625L91.06563 48.971874L89.59688 54.55L88.31563 54.55ZM100.70625 53.659374Q100.03438 54.2375 99.39375 54.4875Q98.76875 54.721874 98.03438 54.721874Q96.84688 54.721874 96.19063 54.14375Q95.55 53.55 95.55 52.628124Q95.55 52.096874 95.78438 51.659374Q96.03438 51.221874 96.425 50.95625Q96.83125 50.690624 97.31563 50.55Q97.675 50.45625 98.40938 50.3625Q99.90938 50.190624 100.6125 49.940624Q100.6125 49.690624 100.6125 49.628124Q100.6125 48.8625 100.26875 48.565624Q99.8 48.14375 98.8625 48.14375Q98.00313 48.14375 97.58125 48.45625Q97.175 48.753124 96.97188 49.51875L95.76875 49.3625Q95.925 48.58125 96.3 48.1125Q96.69063 47.64375 97.39375 47.39375Q98.1125 47.128124 99.05 47.128124Q99.97188 47.128124 100.55 47.346874Q101.12813 47.565624 101.39375 47.89375Q101.675 48.221874 101.78438 48.7375Q101.84688 49.05 101.84688 49.8625L101.84688 51.503124Q101.84688 53.221874 101.925 53.675Q102.00313 54.128124 102.2375 54.55L100.95625 54.55Q100.76875 54.159374 100.70625 53.659374ZM100.6125 50.909374Q99.94063 51.175 98.59688 51.378124Q97.84688 51.4875 97.51875 51.628124Q97.20625 51.753124 97.03438 52.01875Q96.8625 52.284374 96.8625 52.596874Q96.8625 53.096874 97.2375 53.425Q97.6125 53.753124 98.33125 53.753124Q99.05 53.753124 99.59688 53.440624Q100.14375 53.128124 100.40938 52.58125Q100.6125 52.175 100.6125 51.3625L100.6125 50.909374ZM106.65938 53.45625L106.83125 54.534374Q106.31563 54.64375 105.90938 54.64375Q105.2375 54.64375 104.8625 54.440624Q104.50313 54.221874 104.34688 53.878124Q104.20625 53.534374 104.20625 52.425L104.20625 48.253124L103.3 48.253124L103.3 47.284374L104.20625 47.284374L104.20625 45.4875L105.425 44.753124L105.425 47.284374L106.65938 47.284374L106.65938 48.253124L105.425 48.253124L105.425 52.4875Q105.425 53.01875 105.4875 53.175Q105.55 53.315624 105.69063 53.409374Q105.84688 53.503124 106.1125 53.503124Q106.33125 53.503124 106.65938 53.45625ZM112.70625 51.89375L113.925 52.05Q113.72188 53.3 112.89375 54.01875Q112.08125 54.721874 110.89375 54.721874Q109.40938 54.721874 108.50313 53.753124Q107.59688 52.76875 107.59688 50.940624Q107.59688 49.76875 107.9875 48.89375Q108.37813 48.003124 109.175 47.565624Q109.97188 47.128124 110.90938 47.128124Q112.08125 47.128124 112.83125 47.721874Q113.59688 48.315624 113.8 49.425L112.6125 49.6125Q112.44063 48.878124 112.00313 48.51875Q111.56563 48.14375 110.95625 48.14375Q110.01875 48.14375 109.44063 48.815624Q108.8625 49.471874 108.8625 50.909374Q108.8625 52.378124 109.425 53.05Q109.9875 53.70625 110.87813 53.70625Q111.6125 53.70625 112.09688 53.26875Q112.58125 52.815624 112.70625 51.89375ZM114.97188 54.55L114.97188 44.534374L116.20625 44.534374L116.20625 48.128124Q117.06563 47.128124 118.37813 47.128124Q119.19063 47.128124 119.78438 47.45625Q120.37813 47.76875 120.62813 48.33125Q120.89375 48.878124 120.89375 49.95625L120.89375 54.55L119.65938 54.55L119.65938 49.95625Q119.65938 49.01875 119.25313 48.6125Q118.8625 48.190624 118.12813 48.190624Q117.58125 48.190624 117.09688 48.471874Q116.6125 48.753124 116.40938 49.2375Q116.20625 49.721874 116.20625 50.58125L116.20625 54.55L114.97188 54.55ZM127.94063 52.20625L129.22188 52.3625Q128.90938 53.4875 128.09688 54.1125Q127.28438 54.721874 126.01875 54.721874Q124.425 54.721874 123.4875 53.7375Q122.56563 52.753124 122.56563 50.9875Q122.56563 49.14375 123.50313 48.14375Q124.45625 47.128124 125.95625 47.128124Q127.40938 47.128124 128.33125 48.128124Q129.25313 49.1125 129.25313 50.909374Q129.25313 51.01875 129.25313 51.2375L123.83125 51.2375Q123.90938 52.425 124.50313 53.065624Q125.1125 53.70625 126.03438 53.70625Q126.70625 53.70625 127.175 53.346874Q127.65938 52.9875 127.94063 52.20625ZM123.90938 50.221874L127.95625 50.221874Q127.87813 49.3 127.4875 48.846874Q126.90938 48.14375 125.97188 48.14375Q125.1125 48.14375 124.53438 48.70625Q123.97188 49.26875 123.90938 50.221874ZM135.69063 54.55L135.69063 53.628124Q134.9875 54.721874 133.65938 54.721874Q132.78438 54.721874 132.05 54.2375Q131.33125 53.753124 130.925 52.89375Q130.53438 52.034374 130.53438 50.925Q130.53438 49.846874 130.89375 48.95625Q131.25313 48.065624 131.97188 47.596874Q132.70625 47.128124 133.59688 47.128124Q134.25313 47.128124 134.76875 47.409374Q135.28438 47.675 135.59688 48.128124L135.59688 44.534374L136.83125 44.534374L136.83125 54.55L135.69063 54.55ZM131.8 50.925Q131.8 52.315624 132.37813 53.01875Q132.97188 53.70625 133.76875 53.70625Q134.58125 53.70625 135.14375 53.05Q135.70625 52.378124 135.70625 51.034374Q135.70625 49.534374 135.12813 48.846874Q134.55 48.14375 133.72188 48.14375Q132.89375 48.14375 132.34688 48.815624Q131.8 49.4875 131.8 50.925ZM145.65938 53.45625L145.83125 54.534374Q145.31563 54.64375 144.90938 54.64375Q144.2375 54.64375 143.8625 54.440624Q143.50313 54.221874 143.34688 53.878124Q143.20625 53.534374 143.20625 52.425L143.20625 48.253124L142.3 48.253124L142.3 47.284374L143.20625 47.284374L143.20625 45.4875L144.425 44.753124L144.425 47.284374L145.65938 47.284374L145.65938 48.253124L144.425 48.253124L144.425 52.4875Q144.425 53.01875 144.4875 53.175Q144.55 53.315624 144.69063 53.409374Q144.84688 53.503124 145.1125 53.503124Q145.33125 53.503124 145.65938 53.45625ZM146.97188 54.55L146.97188 44.534374L148.20625 44.534374L148.20625 48.128124Q149.06563 47.128124 150.37813 47.128124Q151.19063 47.128124 151.78438 47.45625Q152.37813 47.76875 152.62813 48.33125Q152.89375 48.878124 152.89375 49.95625L152.89375 54.55L151.65938 54.55L151.65938 49.95625Q151.65938 49.01875 151.25313 48.6125Q150.8625 48.190624 150.12813 48.190624Q149.58125 48.190624 149.09688 48.471874Q148.6125 48.753124 148.40938 49.2375Q148.20625 49.721874 148.20625 50.58125L148.20625 54.55L146.97188 54.55ZM159.94063 52.20625L161.22188 52.3625Q160.90938 53.4875 160.09688 54.1125Q159.28438 54.721874 158.01875 54.721874Q156.425 54.721874 155.4875 53.7375Q154.56563 52.753124 154.56563 50.9875Q154.56563 49.14375 155.50313 48.14375Q156.45625 47.128124 157.95625 47.128124Q159.40938 47.128124 160.33125 48.128124Q161.25313 49.1125 161.25313 50.909374Q161.25313 51.01875 161.25313 51.2375L155.83125 51.2375Q155.90938 52.425 156.50313 53.065624Q157.1125 53.70625 158.03438 53.70625Q158.70625 53.70625 159.175 53.346874Q159.65938 52.9875 159.94063 52.20625ZM155.90938 50.221874L159.95625 50.221874Q159.87813 49.3 159.4875 48.846874Q158.90938 48.14375 157.97188 48.14375Q157.1125 48.14375 156.53438 48.70625Q155.97188 49.26875 155.90938 50.221874ZM166.94063 54.55L166.94063 44.534374L168.175 44.534374L168.175 54.55L166.94063 54.55ZM169.9875 45.940624L169.9875 44.534374L171.20625 44.534374L171.20625 45.940624L169.9875 45.940624ZM169.9875 54.55L169.9875 47.284374L171.20625 47.284374L171.20625 54.55L169.9875 54.55ZM172.97188 54.55L172.97188 47.284374L174.08125 47.284374L174.08125 48.315624Q174.87813 47.128124 176.39375 47.128124Q177.05 47.128124 177.59688 47.3625Q178.14375 47.596874 178.40938 47.9875Q178.69063 48.3625 178.8 48.89375Q178.87813 49.2375 178.87813 50.08125L178.87813 54.55L177.64375 54.55L177.64375 50.128124Q177.64375 49.378124 177.50313 49.01875Q177.3625 48.64375 176.9875 48.425Q176.62813 48.190624 176.12813 48.190624Q175.34688 48.190624 174.76875 48.690624Q174.20625 49.190624 174.20625 50.58125L174.20625 54.55L172.97188 54.55ZM180.9875 54.55L180.9875 44.534374L182.20625 44.534374L182.20625 50.2375L185.12813 47.284374L186.72188 47.284374L183.94063 49.9875L187.00313 54.55L185.47188 54.55L183.08125 50.83125L182.20625 51.675L182.20625 54.55L180.9875 54.55ZM192.94063 52.20625L194.22188 52.3625Q193.90938 53.4875 193.09688 54.1125Q192.28438 54.721874 191.01875 54.721874Q189.425 54.721874 188.4875 53.7375Q187.56563 52.753124 187.56563 50.9875Q187.56563 49.14375 188.50313 48.14375Q189.45625 47.128124 190.95625 47.128124Q192.40938 47.128124 193.33125 48.128124Q194.25313 49.1125 194.25313 50.909374Q194.25313 51.01875 194.25313 51.2375L188.83125 51.2375Q188.90938 52.425 189.50313 53.065624Q190.1125 53.70625 191.03438 53.70625Q191.70625 53.70625 192.175 53.346874Q192.65938 52.9875 192.94063 52.20625ZM188.90938 50.221874L192.95625 50.221874Q192.87813 49.3 192.4875 48.846874Q191.90938 48.14375 190.97188 48.14375Q190.1125 48.14375 189.53438 48.70625Q188.97188 49.26875 188.90938 50.221874ZM200.69063 54.55L200.69063 53.628124Q199.9875 54.721874 198.65938 54.721874Q197.78438 54.721874 197.05 54.2375Q196.33125 53.753124 195.925 52.89375Q195.53438 52.034374 195.53438 50.925Q195.53438 49.846874 195.89375 48.95625Q196.25313 48.065624 196.97188 47.596874Q197.70625 47.128124 198.59688 47.128124Q199.25313 47.128124 199.76875 47.409374Q200.28438 47.675 200.59688 48.128124L200.59688 44.534374L201.83125 44.534374L201.83125 54.55L200.69063 54.55ZM196.8 50.925Q196.8 52.315624 197.37813 53.01875Q197.97188 53.70625 198.76875 53.70625Q199.58125 53.70625 200.14375 53.05Q200.70625 52.378124 200.70625 51.034374Q200.70625 49.534374 200.12813 48.846874Q199.55 48.14375 198.72188 48.14375Q197.89375 48.14375 197.34688 48.815624Q196.8 49.4875 196.8 50.925ZM210.95625 54.55L210.95625 50.3L207.09688 44.534374L208.70625 44.534374L210.675 47.55Q211.22188 48.39375 211.70625 49.2375Q212.14375 48.45625 212.8 47.471874L214.7375 44.534374L216.28438 44.534374L212.28438 50.3L212.28438 54.55L210.95625 54.55ZM216.51875 50.925Q216.51875 48.909374 217.64375 47.925Q218.56563 47.128124 219.925 47.128124Q221.40938 47.128124 222.3625 48.1125Q223.31563 49.08125 223.31563 50.815624Q223.31563 52.221874 222.89375 53.034374Q222.47188 53.83125 221.65938 54.284374Q220.8625 54.721874 219.925 54.721874Q218.39375 54.721874 217.45625 53.7375Q216.51875 52.753124 216.51875 50.925ZM217.78438 50.925Q217.78438 52.315624 218.39375 53.01875Q219.00313 53.70625 219.925 53.70625Q220.83125 53.70625 221.44063 53.003124Q222.05 52.3 222.05 50.878124Q222.05 49.534374 221.44063 48.846874Q220.83125 48.14375 219.925 48.14375Q219.00313 48.14375 218.39375 48.83125Q217.78438 49.51875 217.78438 50.925ZM229.7375 54.55L229.7375 53.4875Q228.87813 54.721874 227.425 54.721874Q226.78438 54.721874 226.22188 54.471874Q225.675 54.221874 225.39375 53.846874Q225.12813 53.471874 225.01875 52.940624Q224.94063 52.58125 224.94063 51.784374L224.94063 47.284374L226.175 47.284374L226.175 51.315624Q226.175 52.284374 226.25313 52.6125Q226.3625 53.096874 226.7375 53.378124Q227.1125 53.659374 227.675 53.659374Q228.22188 53.659374 228.70625 53.378124Q229.19063 53.08125 229.39375 52.596874Q229.59688 52.1125 229.59688 51.175L229.59688 47.284374L230.83125 47.284374L230.83125 54.55L229.7375 54.55ZM235.675 54.55L235.675 45.70625L232.37813 45.70625L232.37813 44.534374L240.31563 44.534374L240.31563 45.70625L237.00313 45.70625L237.00313 54.55L235.675 54.55ZM246.7375 54.55L246.7375 53.4875Q245.87813 54.721874 244.425 54.721874Q243.78438 54.721874 243.22188 54.471874Q242.675 54.221874 242.39375 53.846874Q242.12813 53.471874 242.01875 52.940624Q241.94063 52.58125 241.94063 51.784374L241.94063 47.284374L243.175 47.284374L243.175 51.315624Q243.175 52.284374 243.25313 52.6125Q243.3625 53.096874 243.7375 53.378124Q244.1125 53.659374 244.675 53.659374Q245.22188 53.659374 245.70625 53.378124Q246.19063 53.08125 246.39375 52.596874Q246.59688 52.1125 246.59688 51.175L246.59688 47.284374L247.83125 47.284374L247.83125 54.55L246.7375 54.55ZM251.1125 54.55L249.97188 54.55L249.97188 44.534374L251.19063 44.534374L251.19063 48.096874Q251.97188 47.128124 253.19063 47.128124Q253.8625 47.128124 254.45625 47.39375Q255.05 47.659374 255.44063 48.159374Q255.83125 48.64375 256.05 49.33125Q256.26874 50.01875 256.26874 50.815624Q256.26874 52.675 255.33125 53.70625Q254.40938 54.721874 253.12813 54.721874Q251.84688 54.721874 251.1125 53.64375L251.1125 54.55ZM251.09688 50.8625Q251.09688 52.175 251.45625 52.753124Q252.03438 53.70625 253.01875 53.70625Q253.83125 53.70625 254.40938 53.003124Q255.00313 52.3 255.00313 50.909374Q255.00313 49.4875 254.44063 48.815624Q253.87813 48.14375 253.08125 48.14375Q252.26875 48.14375 251.675 48.846874Q251.09688 49.534374 251.09688 50.8625ZM262.9406 52.20625L264.22186 52.3625Q263.90936 53.4875 263.09686 54.1125Q262.28436 54.721874 261.01874 54.721874Q259.425 54.721874 258.4875 53.7375Q257.5656 52.753124 257.5656 50.9875Q257.5656 49.14375 258.5031 48.14375Q259.45624 47.128124 260.95624 47.128124Q262.40936 47.128124 263.33124 48.128124Q264.2531 49.1125 264.2531 50.909374Q264.2531 51.01875 264.2531 51.2375L258.83124 51.2375Q258.90936 52.425 259.5031 53.065624Q260.1125 53.70625 261.03436 53.70625Q261.70624 53.70625 262.175 53.346874Q262.65936 52.9875 262.9406 52.20625ZM258.90936 50.221874L262.95624 50.221874Q262.8781 49.3 262.4875 48.846874Q261.90936 48.14375 260.97186 48.14375Q260.1125 48.14375 259.53436 48.70625Q258.97186 49.26875 258.90936 50.221874ZM272.9875 54.55L269.1125 44.534374L270.55 44.534374L273.15936 51.815624Q273.47186 52.690624 273.675 53.45625Q273.90936 52.628124 274.22186 51.815624L276.925 44.534374L278.28436 44.534374L274.3625 54.55L272.9875 54.55ZM278.9875 45.940624L278.9875 44.534374L280.20624 44.534374L280.20624 45.940624L278.9875 45.940624ZM278.9875 54.55L278.9875 47.284374L280.20624 47.284374L280.20624 54.55L278.9875 54.55ZM286.6906 54.55L286.6906 53.628124Q285.9875 54.721874 284.65936 54.721874Q283.78436 54.721874 283.05 54.2375Q282.33124 53.753124 281.925 52.89375Q281.53436 52.034374 281.53436 50.925Q281.53436 49.846874 281.89374 48.95625Q282.2531 48.065624 282.97186 47.596874Q283.70624 47.128124 284.59686 47.128124Q285.2531 47.128124 285.76874 47.409374Q286.28436 47.675 286.59686 48.128124L286.59686 44.534374L287.83124 44.534374L287.83124 54.55L286.6906 54.55ZM282.8 50.925Q282.8 52.315624 283.3781 53.01875Q283.97186 53.70625 284.76874 53.70625Q285.58124 53.70625 286.14374 53.05Q286.70624 52.378124 286.70624 51.034374Q286.70624 49.534374 286.1281 48.846874Q285.55 48.14375 284.72186 48.14375Q283.89374 48.14375 283.34686 48.815624Q282.8 49.4875 282.8 50.925ZM294.9406 52.20625L296.22186 52.3625Q295.90936 53.4875 295.09686 54.1125Q294.28436 54.721874 293.01874 54.721874Q291.425 54.721874 290.4875 53.7375Q289.5656 52.753124 289.5656 50.9875Q289.5656 49.14375 290.5031 48.14375Q291.45624 47.128124 292.95624 47.128124Q294.40936 47.128124 295.33124 48.128124Q296.2531 49.1125 296.2531 50.909374Q296.2531 51.01875 296.2531 51.2375L290.83124 51.2375Q290.90936 52.425 291.5031 53.065624Q292.1125 53.70625 293.03436 53.70625Q293.70624 53.70625 294.175 53.346874Q294.65936 52.9875 294.9406 52.20625ZM290.90936 50.221874L294.95624 50.221874Q294.8781 49.3 294.4875 48.846874Q293.90936 48.14375 292.97186 48.14375Q292.1125 48.14375 291.53436 48.70625Q290.97186 49.26875 290.90936 50.221874ZM297.51874 50.925Q297.51874 48.909374 298.64374 47.925Q299.5656 47.128124 300.925 47.128124Q302.40936 47.128124 303.3625 48.1125Q304.3156 49.08125 304.3156 50.815624Q304.3156 52.221874 303.89374 53.034374Q303.47186 53.83125 302.65936 54.284374Q301.8625 54.721874 300.925 54.721874Q299.39374 54.721874 298.45624 53.7375Q297.51874 52.753124 297.51874 50.925ZM298.78436 50.925Q298.78436 52.315624 299.39374 53.01875Q300.0031 53.70625 300.925 53.70625Q301.83124 53.70625 302.4406 53.003124Q303.05 52.3 303.05 50.878124Q303.05 49.534374 302.4406 48.846874Q301.83124 48.14375 300.925 48.14375Q300.0031 48.14375 299.39374 48.83125Q298.78436 49.51875 298.78436 50.925Z" fill-rule="nonzero"/><path fill="#757575" d="M21.815624 24.034374L23.70625 24.503124Q23.1125 26.846874 21.565624 28.08125Q20.01875 29.3 17.76875 29.3Q15.45625 29.3 14.003125 28.3625Q12.565625 27.409374 11.8 25.628124Q11.05 23.83125 11.05 21.784374Q11.05 19.55 11.89375 17.89375Q12.753125 16.221874 14.33125 15.362499Q15.909375 14.487499 17.8 14.487499Q19.95625 14.487499 21.409374 15.581249Q22.878124 16.675 23.45625 18.659374L21.596874 19.096874Q21.096874 17.534374 20.14375 16.83125Q19.20625 16.1125 17.76875 16.1125Q16.1125 16.1125 15.003125 16.909374Q13.89375 17.690624 13.440625 19.034374Q13.003125 20.3625 13.003125 21.76875Q13.003125 23.596874 13.534375 24.971874Q14.065625 26.33125 15.190625 27.003124Q16.315624 27.675 17.6125 27.675Q19.20625 27.675 20.315624 26.753124Q21.425 25.83125 21.815624 24.034374ZM25.33125 29.05L25.33125 14.737499L27.08125 14.737499L27.08125 29.05L25.33125 29.05ZM29.378124 16.753124L29.378124 14.737499L31.14375 14.737499L31.14375 16.753124L29.378124 16.753124ZM29.378124 29.05L29.378124 18.675L31.14375 18.675L31.14375 29.05L29.378124 29.05ZM40.14375 25.253124L41.8625 25.471874Q41.58125 27.26875 40.409374 28.284374Q39.253124 29.284374 37.55 29.284374Q35.425 29.284374 34.128124 27.89375Q32.83125 26.503124 32.83125 23.909374Q32.83125 22.221874 33.378124 20.971874Q33.940624 19.70625 35.08125 19.08125Q36.221874 18.440624 37.565624 18.440624Q39.253124 18.440624 40.315624 19.3Q41.39375 20.159374 41.70625 21.721874L39.9875 21.9875Q39.753124 20.940624 39.128124 20.425Q38.503124 19.89375 37.628124 19.89375Q36.3 19.89375 35.471874 20.846874Q34.64375 21.8 34.64375 23.846874Q34.64375 25.940624 35.440624 26.89375Q36.2375 27.83125 37.534374 27.83125Q38.565624 27.83125 39.253124 27.20625Q39.95625 26.565624 40.14375 25.253124ZM43.378124 29.05L43.378124 14.737499L45.14375 14.737499L45.14375 22.89375L49.3 18.675L51.565624 18.675L47.6125 22.51875L51.971874 29.05L49.8 29.05L46.378124 23.753124L45.14375 24.940624L45.14375 29.05L43.378124 29.05ZM57.20625 27.471874L57.45625 29.034374Q56.721874 29.190624 56.128124 29.190624Q55.175 29.190624 54.64375 28.89375Q54.128124 28.58125 53.909374 28.096874Q53.690624 27.596874 53.690624 26.01875L53.690624 20.05L52.409374 20.05L52.409374 18.675L53.690624 18.675L53.690624 16.1125L55.440624 15.049999L55.440624 18.675L57.20625 18.675L57.20625 20.05L55.440624 20.05L55.440624 26.1125Q55.440624 26.8625 55.534374 27.08125Q55.628124 27.284374 55.83125 27.425Q56.05 27.55 56.440624 27.55Q56.721874 27.55 57.20625 27.471874ZM59.3625 29.05L59.3625 14.737499L61.128124 14.737499L61.128124 19.8625Q62.3625 18.440624 64.2375 18.440624Q65.37813 18.440624 66.22188 18.89375Q67.08125 19.346874 67.44063 20.159374Q67.81563 20.95625 67.81563 22.471874L67.81563 29.05L66.06563 29.05L66.06563 22.471874Q66.06563 21.159374 65.4875 20.565624Q64.90938 19.95625 63.878124 19.95625Q63.096874 19.95625 62.39375 20.3625Q61.70625 20.76875 61.409374 21.471874Q61.128124 22.159374 61.128124 23.378124L61.128124 29.05L59.3625 29.05ZM69.34688 29.05L69.34688 18.675L70.925 18.675L70.925 20.253124Q71.53438 19.14375 72.05 18.8Q72.56563 18.440624 73.175 18.440624Q74.06563 18.440624 74.9875 19.003124L74.37813 20.64375Q73.7375 20.253124 73.09688 20.253124Q72.51875 20.253124 72.05 20.6125Q71.59688 20.95625 71.39375 21.565624Q71.1125 22.503124 71.1125 23.6125L71.1125 29.05L69.34688 29.05ZM75.72188 23.8625Q75.72188 20.9875 77.31563 19.596874Q78.65938 18.440624 80.58125 18.440624Q82.72188 18.440624 84.06563 19.846874Q85.425 21.253124 85.425 23.721874Q85.425 25.721874 84.83125 26.878124Q84.2375 28.01875 83.08125 28.659374Q81.94063 29.284374 80.58125 29.284374Q78.39375 29.284374 77.05 27.89375Q75.72188 26.4875 75.72188 23.8625ZM77.51875 23.8625Q77.51875 25.8625 78.37813 26.846874Q79.25313 27.83125 80.58125 27.83125Q81.89375 27.83125 82.75313 26.846874Q83.62813 25.846874 83.62813 23.8Q83.62813 21.878124 82.75313 20.89375Q81.87813 19.89375 80.58125 19.89375Q79.25313 19.89375 78.37813 20.89375Q77.51875 21.878124 77.51875 23.8625ZM94.15938 29.05L94.15938 27.51875Q92.95625 29.284374 90.87813 29.284374Q89.95625 29.284374 89.15938 28.940624Q88.3625 28.58125 87.97188 28.05Q87.59688 27.51875 87.44063 26.7375Q87.33125 26.221874 87.33125 25.096874L87.33125 18.675L89.08125 18.675L89.08125 24.425Q89.08125 25.8 89.19063 26.284374Q89.3625 26.971874 89.89375 27.378124Q90.44063 27.76875 91.22188 27.76875Q92.01875 27.76875 92.70625 27.3625Q93.40938 26.95625 93.69063 26.26875Q93.9875 25.565624 93.9875 24.2375L93.9875 18.675L95.7375 18.675L95.7375 29.05L94.15938 29.05ZM97.05 29.909374L98.75313 30.159374Q98.8625 30.95625 99.34688 31.315624Q100.00313 31.8 101.14375 31.8Q102.3625 31.8 103.01875 31.315624Q103.69063 30.83125 103.925 29.95625Q104.06563 29.409374 104.05 27.690624Q102.89375 29.05 101.175 29.05Q99.03438 29.05 97.8625 27.503124Q96.69063 25.95625 96.69063 23.8Q96.69063 22.315624 97.22188 21.065624Q97.76875 19.815624 98.78438 19.128124Q99.81563 18.440624 101.19063 18.440624Q103.01875 18.440624 104.22188 19.925L104.22188 18.675L105.83125 18.675L105.83125 27.64375Q105.83125 30.065624 105.33125 31.065624Q104.84688 32.08125 103.76875 32.659374Q102.70625 33.253124 101.14375 33.253124Q99.3 33.253124 98.14375 32.425Q97.00313 31.596874 97.05 29.909374ZM98.50313 23.675Q98.50313 25.721874 99.31563 26.659374Q100.12813 27.596874 101.34688 27.596874Q102.55 27.596874 103.3625 26.659374Q104.19063 25.721874 104.19063 23.7375Q104.19063 21.83125 103.34688 20.8625Q102.50313 19.89375 101.31563 19.89375Q100.14375 19.89375 99.31563 20.846874Q98.50313 21.8 98.50313 23.675ZM108.3625 29.05L108.3625 14.737499L110.12813 14.737499L110.12813 19.8625Q111.3625 18.440624 113.2375 18.440624Q114.37813 18.440624 115.22188 18.89375Q116.08125 19.346874 116.44063 20.159374Q116.81563 20.95625 116.81563 22.471874L116.81563 29.05L115.06563 29.05L115.06563 22.471874Q115.06563 21.159374 114.4875 20.565624Q113.90938 19.95625 112.87813 19.95625Q112.09688 19.95625 111.39375 20.3625Q110.70625 20.76875 110.40938 21.471874Q110.12813 22.159374 110.12813 23.378124L110.12813 29.05L108.3625 29.05ZM117.65938 25.95625L119.40938 25.675Q119.55 26.721874 120.22188 27.284374Q120.89375 27.83125 122.09688 27.83125Q123.3 27.83125 123.87813 27.346874Q124.47188 26.846874 124.47188 26.190624Q124.47188 25.596874 123.95625 25.253124Q123.59688 25.01875 122.15938 24.659374Q120.22188 24.159374 119.47188 23.815624Q118.7375 23.45625 118.34688 22.83125Q117.95625 22.190624 117.95625 21.425Q117.95625 20.7375 118.26875 20.14375Q118.59688 19.55 119.14375 19.159374Q119.55 18.8625 120.25313 18.659374Q120.97188 18.440624 121.78438 18.440624Q123.00313 18.440624 123.925 18.8Q124.84688 19.14375 125.28438 19.753124Q125.72188 20.346874 125.89375 21.346874L124.175 21.58125Q124.05 20.784374 123.4875 20.346874Q122.925 19.89375 121.90938 19.89375Q120.69063 19.89375 120.175 20.3Q119.65938 20.690624 119.65938 21.221874Q119.65938 21.565624 119.87813 21.846874Q120.08125 22.128124 120.55 22.315624Q120.81563 22.409374 122.09688 22.753124Q123.97188 23.253124 124.70625 23.58125Q125.44063 23.89375 125.8625 24.503124Q126.28438 25.096874 126.28438 26.003124Q126.28438 26.878124 125.76875 27.659374Q125.25313 28.440624 124.28438 28.8625Q123.31563 29.284374 122.09688 29.284374Q120.08125 29.284374 119.01875 28.440624Q117.95625 27.596874 117.65938 25.95625Z" fill-rule="nonzero"/></svg>