<svg version="1.1" viewBox="0.0 0.0 324.0 201.0" fill="none" stroke="none" stroke-linecap="square" stroke-miterlimit="10" width="324" height="201" xmlns:xlink="http://www.w3.org/1999/xlink" xmlns="http://www.w3.org/2000/svg"><path fill="#ffffff" d="M0 0L324.0 0L324.0 201.0L0 201.0L0 0Z" fill-rule="nonzero"/><path stroke="#333333" stroke-width="1.0" stroke-linecap="butt" d="M93.5 170.5L313.5 170.5" fill-rule="nonzero"/><path stroke="#cccccc" stroke-width="1.0" stroke-linecap="butt" d="M93.5 137.5L313.5 137.5" fill-rule="nonzero"/><path stroke="#cccccc" stroke-width="1.0" stroke-linecap="butt" d="M93.5 104.5L313.5 104.5" fill-rule="nonzero"/><path stroke="#cccccc" stroke-width="1.0" stroke-linecap="butt" d="M93.5 71.5L313.5 71.5" fill-rule="nonzero"/><clipPath id="id_0"><path d="M93.05 71.25L313.95 71.25L313.95 170.95L93.05 170.95L93.05 71.25Z" clip-rule="nonzero"/></clipPath><path stroke="#000000" stroke-width="2.0" stroke-linecap="butt" stroke-opacity="0.0" clip-path="url(#id_0)" d="M160.0 171.0L117.0 171.0L117.0 161.0C117.0 159.89543 117.89543 159.0 119.0 159.0L158.0 159.0C159.10457 159.0 160.0 159.89543 160.0 161.0Z" fill-rule="nonzero"/><path fill="#4285f4" clip-path="url(#id_0)" d="M160.0 171.0L117.0 171.0L117.0 161.0C117.0 159.89543 117.89543 159.0 119.0 159.0L158.0 159.0C159.10457 159.0 160.0 159.89543 160.0 161.0Z" fill-rule="nonzero"/><path stroke="#000000" stroke-width="2.0" stroke-linecap="butt" stroke-opacity="0.0" clip-path="url(#id_0)" d="M226.0 171.0L183.0 171.0L183.0 165.0C183.0 163.89543 183.89543 163.0 185.0 163.0L224.0 163.0C225.10457 163.0 226.0 163.89543 226.0 165.0Z" fill-rule="nonzero"/><path fill="#4285f4" clip-path="url(#id_0)" d="M226.0 171.0L183.0 171.0L183.0 165.0C183.0 163.89543 183.89543 163.0 185.0 163.0L224.0 163.0C225.10457 163.0 226.0 163.89543 226.0 165.0Z" fill-rule="nonzero"/><path stroke="#000000" stroke-width="2.0" stroke-linecap="butt" stroke-opacity="0.0" clip-path="url(#id_0)" d="M291.0 171.0L248.0 171.0L248.0 83.0C248.0 81.89543 248.89543 81.0 250.0 81.0L289.0 81.0C290.10458 81.0 291.0 81.89543 291.0 83.0Z" fill-rule="nonzero"/><path fill="#4285f4" clip-path="url(#id_0)" d="M291.0 171.0L248.0 171.0L248.0 83.0C248.0 81.89543 248.89543 81.0 250.0 81.0L289.0 81.0C290.10458 81.0 291.0 81.89543 291.0 83.0Z" fill-rule="nonzero"/><path fill="#000000" d="M21.049997 140.725L12.456247 144.05313L12.456247 142.81876L18.706247 140.58438Q19.456247 140.31876 20.112497 140.13126Q19.409372 139.92813 18.706247 139.6625L12.456247 137.35L12.456247 136.19376L21.049997 139.55313L21.049997 140.725ZM13.674997 136.30313L12.456247 136.30313L12.456247 135.24063L13.674997 135.24063L13.674997 136.30313ZM21.049997 136.30313L14.831247 136.30313L14.831247 135.24063L21.049997 135.24063L21.049997 136.30313ZM19.049997 129.05313L19.174997 127.95937Q20.128122 128.20938 20.659372 128.9125Q21.190622 129.61563 21.190622 130.69376Q21.190622 132.05313 20.346872 132.86563Q19.503122 133.6625 17.987497 133.6625Q16.424997 133.6625 15.565622 132.85Q14.690622 132.0375 14.690622 130.75626Q14.690622 129.50626 15.534372 128.725Q16.378122 127.92812 17.924997 127.92812Q18.018747 127.92812 18.206247 127.92812L18.206247 132.56876Q19.237497 132.50626 19.784372 131.99063Q20.315622 131.475 20.315622 130.69376Q20.315622 130.11563 20.018747 129.70938Q19.706247 129.2875 19.049997 129.05313ZM17.346872 132.50626L17.346872 129.0375Q16.549997 129.1 16.159372 129.42813Q15.549997 129.94376 15.549997 130.74063Q15.549997 131.475 16.034372 131.975Q16.518747 132.45938 17.346872 132.50626ZM21.049997 125.1625L14.831247 127.06875L14.831247 125.975L18.424997 124.99062L19.753122 124.61562Q19.659372 124.58437 18.471872 124.2875L14.831247 123.30312L14.831247 122.225L18.440622 121.2875L19.628122 120.975L18.424997 120.61562L14.831247 119.55312L14.831247 118.52187L21.049997 120.475L21.049997 121.56875L17.315622 122.55312L16.268747 122.80312L21.049997 124.05312L21.049997 125.1625ZM19.190622 117.725L19.034372 116.69375Q19.659372 116.6 19.987497 116.20937Q20.315622 115.80312 20.315622 115.06875Q20.315622 114.35 20.034372 114.00625Q19.737497 113.64687 19.331247 113.64687Q18.971872 113.64687 18.768747 113.95937Q18.628122 114.17812 18.409372 115.0375Q18.112497 116.19375 17.909372 116.64687Q17.690622 117.08437 17.315622 117.31875Q16.940622 117.55312 16.471872 117.55312Q16.065622 117.55312 15.706247 117.36562Q15.346872 117.17812 15.112497 116.85Q14.940622 116.6 14.815622 116.17812Q14.690622 115.75625 14.690622 115.25625Q14.690622 114.5375 14.909372 113.99062Q15.112497 113.42812 15.471872 113.1625Q15.831247 112.89687 16.424997 112.80312L16.565622 113.83437Q16.096872 113.89687 15.831247 114.24062Q15.549997 114.56875 15.549997 115.19375Q15.549997 115.9125 15.799997 116.225Q16.034372 116.5375 16.362497 116.5375Q16.565622 116.5375 16.721872 116.4125Q16.893747 116.27187 17.003122 116.00625Q17.065622 115.85 17.268747 115.06875Q17.581247 113.94375 17.768747 113.50625Q17.956247 113.06875 18.315622 112.81875Q18.674997 112.56875 19.221872 112.56875Q19.753122 112.56875 20.221872 112.88125Q20.674997 113.17812 20.940622 113.75625Q21.190622 114.33437 21.190622 115.06875Q21.190622 116.2875 20.690622 116.92812Q20.174997 117.55312 19.190622 117.725Z" fill-rule="nonzero"/><path fill="#000000" d="M80.55 170.71562Q80.55 169.18437 80.8625 168.2625Q81.175 167.325 81.78438 166.825Q82.40938 166.325 83.34688 166.325Q84.03438 166.325 84.55 166.60625Q85.08125 166.8875 85.425 167.41875Q85.76875 167.93437 85.95625 168.68437Q86.14375 169.43437 86.14375 170.71562Q86.14375 172.23125 85.83125 173.15312Q85.53438 174.075 84.90938 174.59062Q84.3 175.09062 83.34688 175.09062Q82.1125 175.09062 81.39375 174.2Q80.55 173.1375 80.55 170.71562ZM81.62813 170.71562Q81.62813 172.825 82.12813 173.52812Q82.62813 174.23125 83.34688 174.23125Q84.08125 174.23125 84.56563 173.52812Q85.06563 172.825 85.06563 170.71562Q85.06563 168.59062 84.56563 167.90312Q84.08125 167.2 83.33125 167.2Q82.6125 167.2 82.175 167.80937Q81.62813 168.59062 81.62813 170.71562Z" fill-rule="nonzero"/><path fill="#000000" d="M49.55 139.46666L50.659374 139.37291Q50.784374 140.18541 51.221874 140.59166Q51.675 140.99791 52.315624 140.99791Q53.065624 140.99791 53.596874 140.41978Q54.128124 139.84166 54.128124 138.90416Q54.128124 137.99791 53.6125 137.48228Q53.1125 136.95103 52.284374 136.95103Q51.784374 136.95103 51.3625 137.18541Q50.95625 137.41978 50.721874 137.77916L49.7375 137.65416L50.565624 133.24791L54.846874 133.24791L54.846874 134.24791L51.409374 134.24791L50.95625 136.56041Q51.721874 136.01353 52.565624 136.01353Q53.690624 136.01353 54.45625 136.79478Q55.2375 137.57603 55.2375 138.81041Q55.2375 139.96666 54.565624 140.82603Q53.7375 141.85728 52.315624 141.85728Q51.14375 141.85728 50.39375 141.20103Q49.659374 140.54478 49.55 139.46666ZM56.55 137.48228Q56.55 135.95103 56.8625 135.02916Q57.175 134.09166 57.784374 133.59166Q58.409374 133.09166 59.346874 133.09166Q60.034374 133.09166 60.55 133.37291Q61.08125 133.65416 61.425 134.18541Q61.76875 134.70103 61.95625 135.45103Q62.14375 136.20103 62.14375 137.48228Q62.14375 138.99791 61.83125 139.91978Q61.534374 140.84166 60.909374 141.35728Q60.3 141.85728 59.346874 141.85728Q58.1125 141.85728 57.39375 140.96666Q56.55 139.90416 56.55 137.48228ZM57.628124 137.48228Q57.628124 139.59166 58.128124 140.29478Q58.628124 140.99791 59.346874 140.99791Q60.08125 140.99791 60.565624 140.29478Q61.065624 139.59166 61.065624 137.48228Q61.065624 135.35728 60.565624 134.66978Q60.08125 133.96666 59.33125 133.96666Q58.6125 133.96666 58.175 134.57603Q57.628124 135.35728 57.628124 137.48228ZM64.1125 141.71666L64.1125 140.51353L65.31563 140.51353L65.31563 141.71666Q65.31563 142.37291 65.08125 142.77916Q64.84688 143.20103 64.34688 143.41978L64.05 142.96666Q64.37813 142.82603 64.53438 142.52916Q64.69063 142.24791 64.72188 141.71666L64.1125 141.71666ZM66.55 137.48228Q66.55 135.95103 66.8625 135.02916Q67.175 134.09166 67.78438 133.59166Q68.40938 133.09166 69.34688 133.09166Q70.03438 133.09166 70.55 133.37291Q71.08125 133.65416 71.425 134.18541Q71.76875 134.70103 71.95625 135.45103Q72.14375 136.20103 72.14375 137.48228Q72.14375 138.99791 71.83125 139.91978Q71.53438 140.84166 70.90938 141.35728Q70.3 141.85728 69.34688 141.85728Q68.1125 141.85728 67.39375 140.96666Q66.55 139.90416 66.55 137.48228ZM67.62813 137.48228Q67.62813 139.59166 68.12813 140.29478Q68.62813 140.99791 69.34688 140.99791Q70.08125 140.99791 70.56563 140.29478Q71.06563 139.59166 71.06563 137.48228Q71.06563 135.35728 70.56563 134.66978Q70.08125 133.96666 69.33125 133.96666Q68.6125 133.96666 68.175 134.57603Q67.62813 135.35728 67.62813 137.48228ZM73.55 137.48228Q73.55 135.95103 73.8625 135.02916Q74.175 134.09166 74.78438 133.59166Q75.40938 133.09166 76.34688 133.09166Q77.03438 133.09166 77.55 133.37291Q78.08125 133.65416 78.425 134.18541Q78.76875 134.70103 78.95625 135.45103Q79.14375 136.20103 79.14375 137.48228Q79.14375 138.99791 78.83125 139.91978Q78.53438 140.84166 77.90938 141.35728Q77.3 141.85728 76.34688 141.85728Q75.1125 141.85728 74.39375 140.96666Q73.55 139.90416 73.55 137.48228ZM74.62813 137.48228Q74.62813 139.59166 75.12813 140.29478Q75.62813 140.99791 76.34688 140.99791Q77.08125 140.99791 77.56563 140.29478Q78.06563 139.59166 78.06563 137.48228Q78.06563 135.35728 77.56563 134.66978Q77.08125 133.96666 76.33125 133.96666Q75.6125 133.96666 75.175 134.57603Q74.62813 135.35728 74.62813 137.48228ZM80.55 137.48228Q80.55 135.95103 80.8625 135.02916Q81.175 134.09166 81.78438 133.59166Q82.40938 133.09166 83.34688 133.09166Q84.03438 133.09166 84.55 133.37291Q85.08125 133.65416 85.425 134.18541Q85.76875 134.70103 85.95625 135.45103Q86.14375 136.20103 86.14375 137.48228Q86.14375 138.99791 85.83125 139.91978Q85.53438 140.84166 84.90938 141.35728Q84.3 141.85728 83.34688 141.85728Q82.1125 141.85728 81.39375 140.96666Q80.55 139.90416 80.55 137.48228ZM81.62813 137.48228Q81.62813 139.59166 82.12813 140.29478Q82.62813 140.99791 83.34688 140.99791Q84.08125 140.99791 84.56563 140.29478Q85.06563 139.59166 85.06563 137.48228Q85.06563 135.35728 84.56563 134.66978Q84.08125 133.96666 83.33125 133.96666Q82.6125 133.96666 82.175 134.57603Q81.62813 135.35728 81.62813 137.48228Z" fill-rule="nonzero"/><path fill="#000000" d="M46.51875 108.48333L45.471874 108.48333L45.471874 101.76458Q45.08125 102.123955 44.45625 102.498955Q43.846874 102.85833 43.3625 103.030205L43.3625 102.01458Q44.2375 101.592705 44.89375 101.01458Q45.565624 100.42083 45.846874 99.85833L46.51875 99.85833L46.51875 108.48333ZM49.55 104.248955Q49.55 102.717705 49.8625 101.79583Q50.175 100.85833 50.784374 100.35833Q51.409374 99.85833 52.346874 99.85833Q53.034374 99.85833 53.55 100.13958Q54.08125 100.42083 54.425 100.95208Q54.76875 101.467705 54.95625 102.217705Q55.14375 102.967705 55.14375 104.248955Q55.14375 105.76458 54.83125 106.686455Q54.534374 107.60833 53.909374 108.123955Q53.3 108.623955 52.346874 108.623955Q51.1125 108.623955 50.39375 107.73333Q49.55 106.67083 49.55 104.248955ZM50.628124 104.248955Q50.628124 106.35833 51.128124 107.061455Q51.628124 107.76458 52.346874 107.76458Q53.08125 107.76458 53.565624 107.061455Q54.065624 106.35833 54.065624 104.248955Q54.065624 102.123955 53.565624 101.436455Q53.08125 100.73333 52.33125 100.73333Q51.6125 100.73333 51.175 101.342705Q50.628124 102.123955 50.628124 104.248955ZM56.55 104.248955Q56.55 102.717705 56.8625 101.79583Q57.175 100.85833 57.784374 100.35833Q58.409374 99.85833 59.346874 99.85833Q60.034374 99.85833 60.55 100.13958Q61.08125 100.42083 61.425 100.95208Q61.76875 101.467705 61.95625 102.217705Q62.14375 102.967705 62.14375 104.248955Q62.14375 105.76458 61.83125 106.686455Q61.534374 107.60833 60.909374 108.123955Q60.3 108.623955 59.346874 108.623955Q58.1125 108.623955 57.39375 107.73333Q56.55 106.67083 56.55 104.248955ZM57.628124 104.248955Q57.628124 106.35833 58.128124 107.061455Q58.628124 107.76458 59.346874 107.76458Q60.08125 107.76458 60.565624 107.061455Q61.065624 106.35833 61.065624 104.248955Q61.065624 102.123955 60.565624 101.436455Q60.08125 100.73333 59.33125 100.73333Q58.6125 100.73333 58.175 101.342705Q57.628124 102.123955 57.628124 104.248955ZM64.1125 108.48333L64.1125 107.280205L65.31563 107.280205L65.31563 108.48333Q65.31563 109.13958 65.08125 109.54583Q64.84688 109.967705 64.34688 110.186455L64.05 109.73333Q64.37813 109.592705 64.53438 109.29583Q64.69063 109.01458 64.72188 108.48333L64.1125 108.48333ZM66.55 104.248955Q66.55 102.717705 66.8625 101.79583Q67.175 100.85833 67.78438 100.35833Q68.40938 99.85833 69.34688 99.85833Q70.03438 99.85833 70.55 100.13958Q71.08125 100.42083 71.425 100.95208Q71.76875 101.467705 71.95625 102.217705Q72.14375 102.967705 72.14375 104.248955Q72.14375 105.76458 71.83125 106.686455Q71.53438 107.60833 70.90938 108.123955Q70.3 108.623955 69.34688 108.623955Q68.1125 108.623955 67.39375 107.73333Q66.55 106.67083 66.55 104.248955ZM67.62813 104.248955Q67.62813 106.35833 68.12813 107.061455Q68.62813 107.76458 69.34688 107.76458Q70.08125 107.76458 70.56563 107.061455Q71.06563 106.35833 71.06563 104.248955Q71.06563 102.123955 70.56563 101.436455Q70.08125 100.73333 69.33125 100.73333Q68.6125 100.73333 68.175 101.342705Q67.62813 102.123955 67.62813 104.248955ZM73.55 104.248955Q73.55 102.717705 73.8625 101.79583Q74.175 100.85833 74.78438 100.35833Q75.40938 99.85833 76.34688 99.85833Q77.03438 99.85833 77.55 100.13958Q78.08125 100.42083 78.425 100.95208Q78.76875 101.467705 78.95625 102.217705Q79.14375 102.967705 79.14375 104.248955Q79.14375 105.76458 78.83125 106.686455Q78.53438 107.60833 77.90938 108.123955Q77.3 108.623955 76.34688 108.623955Q75.1125 108.623955 74.39375 107.73333Q73.55 106.67083 73.55 104.248955ZM74.62813 104.248955Q74.62813 106.35833 75.12813 107.061455Q75.62813 107.76458 76.34688 107.76458Q77.08125 107.76458 77.56563 107.061455Q78.06563 106.35833 78.06563 104.248955Q78.06563 102.123955 77.56563 101.436455Q77.08125 100.73333 76.33125 100.73333Q75.6125 100.73333 75.175 101.342705Q74.62813 102.123955 74.62813 104.248955ZM80.55 104.248955Q80.55 102.717705 80.8625 101.79583Q81.175 100.85833 81.78438 100.35833Q82.40938 99.85833 83.34688 99.85833Q84.03438 99.85833 84.55 100.13958Q85.08125 100.42083 85.425 100.95208Q85.76875 101.467705 85.95625 102.217705Q86.14375 102.967705 86.14375 104.248955Q86.14375 105.76458 85.83125 106.686455Q85.53438 107.60833 84.90938 108.123955Q84.3 108.623955 83.34688 108.623955Q82.1125 108.623955 81.39375 107.73333Q80.55 106.67083 80.55 104.248955ZM81.62813 104.248955Q81.62813 106.35833 82.12813 107.061455Q82.62813 107.76458 83.34688 107.76458Q84.08125 107.76458 84.56563 107.061455Q85.06563 106.35833 85.06563 104.248955Q85.06563 102.123955 84.56563 101.436455Q84.08125 100.73333 83.33125 100.73333Q82.6125 100.73333 82.175 101.342705Q81.62813 102.123955 81.62813 104.248955Z" fill-rule="nonzero"/><path fill="#000000" d="M46.51875 75.25L45.471874 75.25L45.471874 68.53125Q45.08125 68.890625 44.45625 69.265625Q43.846874 69.625 43.3625 69.796875L43.3625 68.78125Q44.2375 68.359375 44.89375 67.78125Q45.565624 67.1875 45.846874 66.625L46.51875 66.625L46.51875 75.25ZM49.55 73.0L50.659374 72.90625Q50.784374 73.71875 51.221874 74.125Q51.675 74.53125 52.315624 74.53125Q53.065624 74.53125 53.596874 73.953125Q54.128124 73.375 54.128124 72.4375Q54.128124 71.53125 53.6125 71.015625Q53.1125 70.484375 52.284374 70.484375Q51.784374 70.484375 51.3625 70.71875Q50.95625 70.953125 50.721874 71.3125L49.7375 71.1875L50.565624 66.78125L54.846874 66.78125L54.846874 67.78125L51.409374 67.78125L50.95625 70.09375Q51.721874 69.546875 52.565624 69.546875Q53.690624 69.546875 54.45625 70.328125Q55.2375 71.109375 55.2375 72.34375Q55.2375 73.5 54.565624 74.359375Q53.7375 75.390625 52.315624 75.390625Q51.14375 75.390625 50.39375 74.734375Q49.659374 74.078125 49.55 73.0ZM56.55 71.015625Q56.55 69.484375 56.8625 68.5625Q57.175 67.625 57.784374 67.125Q58.409374 66.625 59.346874 66.625Q60.034374 66.625 60.55 66.90625Q61.08125 67.1875 61.425 67.71875Q61.76875 68.234375 61.95625 68.984375Q62.14375 69.734375 62.14375 71.015625Q62.14375 72.53125 61.83125 73.453125Q61.534374 74.375 60.909374 74.890625Q60.3 75.390625 59.346874 75.390625Q58.1125 75.390625 57.39375 74.5Q56.55 73.4375 56.55 71.015625ZM57.628124 71.015625Q57.628124 73.125 58.128124 73.828125Q58.628124 74.53125 59.346874 74.53125Q60.08125 74.53125 60.565624 73.828125Q61.065624 73.125 61.065624 71.015625Q61.065624 68.890625 60.565624 68.203125Q60.08125 67.5 59.33125 67.5Q58.6125 67.5 58.175 68.109375Q57.628124 68.890625 57.628124 71.015625ZM64.1125 75.25L64.1125 74.046875L65.31563 74.046875L65.31563 75.25Q65.31563 75.90625 65.08125 76.3125Q64.84688 76.734375 64.34688 76.953125L64.05 76.5Q64.37813 76.359375 64.53438 76.0625Q64.69063 75.78125 64.72188 75.25L64.1125 75.25ZM66.55 71.015625Q66.55 69.484375 66.8625 68.5625Q67.175 67.625 67.78438 67.125Q68.40938 66.625 69.34688 66.625Q70.03438 66.625 70.55 66.90625Q71.08125 67.1875 71.425 67.71875Q71.76875 68.234375 71.95625 68.984375Q72.14375 69.734375 72.14375 71.015625Q72.14375 72.53125 71.83125 73.453125Q71.53438 74.375 70.90938 74.890625Q70.3 75.390625 69.34688 75.390625Q68.1125 75.390625 67.39375 74.5Q66.55 73.4375 66.55 71.015625ZM67.62813 71.015625Q67.62813 73.125 68.12813 73.828125Q68.62813 74.53125 69.34688 74.53125Q70.08125 74.53125 70.56563 73.828125Q71.06563 73.125 71.06563 71.015625Q71.06563 68.890625 70.56563 68.203125Q70.08125 67.5 69.33125 67.5Q68.6125 67.5 68.175 68.109375Q67.62813 68.890625 67.62813 71.015625ZM73.55 71.015625Q73.55 69.484375 73.8625 68.5625Q74.175 67.625 74.78438 67.125Q75.40938 66.625 76.34688 66.625Q77.03438 66.625 77.55 66.90625Q78.08125 67.1875 78.425 67.71875Q78.76875 68.234375 78.95625 68.984375Q79.14375 69.734375 79.14375 71.015625Q79.14375 72.53125 78.83125 73.453125Q78.53438 74.375 77.90938 74.890625Q77.3 75.390625 76.34688 75.390625Q75.1125 75.390625 74.39375 74.5Q73.55 73.4375 73.55 71.015625ZM74.62813 71.015625Q74.62813 73.125 75.12813 73.828125Q75.62813 74.53125 76.34688 74.53125Q77.08125 74.53125 77.56563 73.828125Q78.06563 73.125 78.06563 71.015625Q78.06563 68.890625 77.56563 68.203125Q77.08125 67.5 76.33125 67.5Q75.6125 67.5 75.175 68.109375Q74.62813 68.890625 74.62813 71.015625ZM80.55 71.015625Q80.55 69.484375 80.8625 68.5625Q81.175 67.625 81.78438 67.125Q82.40938 66.625 83.34688 66.625Q84.03438 66.625 84.55 66.90625Q85.08125 67.1875 85.425 67.71875Q85.76875 68.234375 85.95625 68.984375Q86.14375 69.734375 86.14375 71.015625Q86.14375 72.53125 85.83125 73.453125Q85.53438 74.375 84.90938 74.890625Q84.3 75.390625 83.34688 75.390625Q82.1125 75.390625 81.39375 74.5Q80.55 73.4375 80.55 71.015625ZM81.62813 71.015625Q81.62813 73.125 82.12813 73.828125Q82.62813 74.53125 83.34688 74.53125Q84.08125 74.53125 84.56563 73.828125Q85.06563 73.125 85.06563 71.015625Q85.06563 68.890625 84.56563 68.203125Q84.08125 67.5 83.33125 67.5Q82.6125 67.5 82.175 68.109375Q81.62813 68.890625 81.62813 71.015625Z" fill-rule="nonzero"/><path fill="#000000" d="M122.669075 187.95L122.669075 180.37187L119.84095 180.37187L119.84095 179.35625L126.65345 179.35625L126.65345 180.37187L123.8097 180.37187L123.8097 187.95L122.669075 187.95ZM128.4972 187.95L126.59095 181.73125L127.6847 181.73125L128.66907 185.325L129.04407 186.65312Q129.07532 186.55937 129.3722 185.37187L130.35657 181.73125L131.4347 181.73125L132.3722 185.34062L132.6847 186.52812L133.04407 185.325L134.10657 181.73125L135.13782 181.73125L133.1847 187.95L132.09094 187.95L131.10657 184.21562L130.85657 183.16875L129.60657 187.95L128.4972 187.95ZM136.35657 180.575L136.35657 179.35625L137.41907 179.35625L137.41907 180.575L136.35657 180.575ZM136.35657 187.95L136.35657 181.73125L137.41907 181.73125L137.41907 187.95L136.35657 187.95ZM141.65344 187.0125L141.8097 187.93437Q141.35657 188.02812 141.01282 188.02812Q140.4347 188.02812 140.1222 187.85625Q139.8097 187.66875 139.66907 187.37187Q139.54407 187.075 139.54407 186.12187L139.54407 182.54375L138.77844 182.54375L138.77844 181.73125L139.54407 181.73125L139.54407 180.18437L140.59094 179.55937L140.59094 181.73125L141.65344 181.73125L141.65344 182.54375L140.59094 182.54375L140.59094 186.18437Q140.59094 186.6375 140.63782 186.7625Q140.70032 186.8875 140.82532 186.96562Q140.95032 187.04375 141.1847 187.04375Q141.3722 187.04375 141.65344 187.0125ZM144.65344 187.0125L144.8097 187.93437Q144.35657 188.02812 144.01282 188.02812Q143.4347 188.02812 143.1222 187.85625Q142.8097 187.66875 142.66907 187.37187Q142.54407 187.075 142.54407 186.12187L142.54407 182.54375L141.77844 182.54375L141.77844 181.73125L142.54407 181.73125L142.54407 180.18437L143.59094 179.55937L143.59094 181.73125L144.65344 181.73125L144.65344 182.54375L143.59094 182.54375L143.59094 186.18437Q143.59094 186.6375 143.63782 186.7625Q143.70032 186.8875 143.82532 186.96562Q143.95032 187.04375 144.1847 187.04375Q144.3722 187.04375 144.65344 187.0125ZM149.60657 185.95L150.70032 186.075Q150.45032 187.02812 149.7472 187.55937Q149.04407 188.09062 147.96594 188.09062Q146.60657 188.09062 145.79407 187.24687Q144.9972 186.40312 144.9972 184.8875Q144.9972 183.325 145.8097 182.46562Q146.6222 181.59062 147.90344 181.59062Q149.15344 181.59062 149.9347 182.43437Q150.73157 183.27812 150.73157 184.825Q150.73157 184.91875 150.73157 185.10625L146.09094 185.10625Q146.15344 186.1375 146.66907 186.68437Q147.1847 187.21562 147.96594 187.21562Q148.54407 187.21562 148.95032 186.91875Q149.3722 186.60625 149.60657 185.95ZM146.15344 184.24687L149.6222 184.24687Q149.5597 183.45 149.23157 183.05937Q148.71594 182.45 147.91907 182.45Q147.1847 182.45 146.6847 182.93437Q146.20032 183.41875 146.15344 184.24687ZM152.34094 187.95L152.34094 181.73125L153.29407 181.73125L153.29407 182.66875Q153.65344 182.0125 153.95032 181.80937Q154.26282 181.59062 154.63782 181.59062Q155.16907 181.59062 155.71594 181.91875L155.35657 182.90312Q154.96594 182.66875 154.59094 182.66875Q154.23157 182.66875 153.95032 182.8875Q153.6847 183.09062 153.57532 183.46562Q153.38782 184.02812 153.38782 184.68437L153.38782 187.95L152.34094 187.95Z" fill-rule="nonzero"/><path fill="#000000" d="M180.875 187.95L180.875 179.35625L182.01562 179.35625L182.01562 186.93437L186.25 186.93437L186.25 187.95L180.875 187.95ZM187.79688 180.575L187.79688 179.35625L188.85938 179.35625L188.85938 180.575L187.79688 180.575ZM187.79688 187.95L187.79688 181.73125L188.85938 181.73125L188.85938 187.95L187.79688 187.95ZM190.79688 187.95L190.79688 181.73125L191.73438 181.73125L191.73438 182.60625Q192.42188 181.59062 193.71875 181.59062Q194.28125 181.59062 194.75 181.79375Q195.23438 181.99687 195.46875 182.325Q195.70312 182.65312 195.79688 183.09062Q195.84375 183.3875 195.84375 184.12187L195.84375 187.95L194.79688 187.95L194.79688 184.16875Q194.79688 183.5125 194.67188 183.2Q194.54688 182.8875 194.23438 182.7Q193.92188 182.49687 193.5 182.49687Q192.82812 182.49687 192.32812 182.93437Q191.84375 183.35625 191.84375 184.54375L191.84375 187.95L190.79688 187.95ZM197.79688 187.95L197.79688 179.35625L198.85938 179.35625L198.85938 184.2625L201.34375 181.73125L202.71875 181.73125L200.32812 184.02812L202.95312 187.95L201.65625 187.95L199.59375 184.7625L198.85938 185.48125L198.85938 187.95L197.79688 187.95ZM208.04688 185.95L209.14062 186.075Q208.89062 187.02812 208.1875 187.55937Q207.48438 188.09062 206.40625 188.09062Q205.04688 188.09062 204.23438 187.24687Q203.4375 186.40312 203.4375 184.8875Q203.4375 183.325 204.25 182.46562Q205.0625 181.59062 206.34375 181.59062Q207.59375 181.59062 208.375 182.43437Q209.17188 183.27812 209.17188 184.825Q209.17188 184.91875 209.17188 185.10625L204.53125 185.10625Q204.59375 186.1375 205.10938 186.68437Q205.625 187.21562 206.40625 187.21562Q206.98438 187.21562 207.39062 186.91875Q207.8125 186.60625 208.04688 185.95ZM204.59375 184.24687L208.0625 184.24687Q208.0 183.45 207.67188 183.05937Q207.15625 182.45 206.35938 182.45Q205.625 182.45 205.125 182.93437Q204.64062 183.41875 204.59375 184.24687ZM214.82812 187.95L214.82812 187.16875Q214.23438 188.09062 213.09375 188.09062Q212.34375 188.09062 211.71875 187.68437Q211.09375 187.2625 210.75 186.52812Q210.40625 185.79375 210.40625 184.84062Q210.40625 183.91875 210.71875 183.15312Q211.03125 182.3875 211.65625 181.99687Q212.28125 181.59062 213.04688 181.59062Q213.60938 181.59062 214.04688 181.825Q214.48438 182.05937 214.76562 182.43437L214.76562 179.35625L215.8125 179.35625L215.8125 187.95L214.82812 187.95ZM211.5 184.84062Q211.5 186.04375 212.0 186.6375Q212.5 187.21562 213.1875 187.21562Q213.875 187.21562 214.35938 186.65312Q214.84375 186.09062 214.84375 184.93437Q214.84375 183.65312 214.34375 183.05937Q213.85938 182.46562 213.14062 182.46562Q212.4375 182.46562 211.96875 183.04375Q211.5 183.60625 211.5 184.84062ZM218.125 187.95L218.125 179.35625L219.25 179.35625L219.25 187.95L218.125 187.95ZM220.79688 187.95L220.79688 181.73125L221.73438 181.73125L221.73438 182.60625Q222.42188 181.59062 223.71875 181.59062Q224.28125 181.59062 224.75 181.79375Q225.23438 181.99687 225.46875 182.325Q225.70312 182.65312 225.79688 183.09062Q225.84375 183.3875 225.84375 184.12187L225.84375 187.95L224.79688 187.95L224.79688 184.16875Q224.79688 183.5125 224.67188 183.2Q224.54688 182.8875 224.23438 182.7Q223.92188 182.49687 223.5 182.49687Q222.82812 182.49687 222.32812 182.93437Q221.84375 183.35625 221.84375 184.54375L221.84375 187.95L220.79688 187.95Z" fill-rule="nonzero"/><path fill="#000000" d="M252.37779 187.95L252.37779 179.35625L256.1903 179.35625Q257.34656 179.35625 257.9403 179.59062Q258.53406 179.825 258.89343 180.41875Q259.2528 180.99687 259.2528 181.7Q259.2528 182.62187 258.65906 183.24687Q258.0653 183.87187 256.83093 184.04375Q257.28406 184.2625 257.51843 184.46562Q258.01843 184.91875 258.45593 185.60625L259.95593 187.95L258.51843 187.95L257.39343 186.16875Q256.89343 185.3875 256.5653 184.98125Q256.2528 184.575 255.98717 184.41875Q255.73717 184.24687 255.47154 184.16875Q255.28404 184.1375 254.84654 184.1375L253.51842 184.1375L253.51842 187.95L252.37779 187.95ZM253.51842 183.15312L255.97154 183.15312Q256.73718 183.15312 257.17468 182.99687Q257.6278 182.825 257.84656 182.48125Q258.08093 182.12187 258.08093 181.7Q258.08093 181.09062 257.6278 180.7Q257.1903 180.30937 256.23718 180.30937L253.51842 180.30937L253.51842 183.15312ZM265.48718 185.95L266.58093 186.075Q266.33093 187.02812 265.6278 187.55937Q264.92468 188.09062 263.84656 188.09062Q262.48718 188.09062 261.67468 187.24687Q260.8778 186.40312 260.8778 184.8875Q260.8778 183.325 261.6903 182.46562Q262.5028 181.59062 263.78406 181.59062Q265.03406 181.59062 265.8153 182.43437Q266.61218 183.27812 266.61218 184.825Q266.61218 184.91875 266.61218 185.10625L261.97156 185.10625Q262.03406 186.1375 262.54968 186.68437Q263.0653 187.21562 263.84656 187.21562Q264.42468 187.21562 264.83093 186.91875Q265.2528 186.60625 265.48718 185.95ZM262.03406 184.24687L265.5028 184.24687Q265.4403 183.45 265.11218 183.05937Q264.59656 182.45 263.79968 182.45Q263.0653 182.45 262.5653 182.93437Q262.08093 183.41875 262.03406 184.24687ZM272.26843 187.95L272.26843 187.16875Q271.67468 188.09062 270.53406 188.09062Q269.78406 188.09062 269.15906 187.68437Q268.53406 187.2625 268.1903 186.52812Q267.84656 185.79375 267.84656 184.84062Q267.84656 183.91875 268.15906 183.15312Q268.47156 182.3875 269.09656 181.99687Q269.72156 181.59062 270.48718 181.59062Q271.04968 181.59062 271.48718 181.825Q271.92468 182.05937 272.20593 182.43437L272.20593 179.35625L273.2528 179.35625L273.2528 187.95L272.26843 187.95ZM268.9403 184.84062Q268.9403 186.04375 269.4403 186.6375Q269.9403 187.21562 270.6278 187.21562Q271.3153 187.21562 271.79968 186.65312Q272.28406 186.09062 272.28406 184.93437Q272.28406 183.65312 271.78406 183.05937Q271.29968 182.46562 270.58093 182.46562Q269.8778 182.46562 269.40906 183.04375Q268.9403 183.60625 268.9403 184.84062ZM279.26843 187.95L279.26843 187.16875Q278.67468 188.09062 277.53406 188.09062Q276.78406 188.09062 276.15906 187.68437Q275.53406 187.2625 275.1903 186.52812Q274.84656 185.79375 274.84656 184.84062Q274.84656 183.91875 275.15906 183.15312Q275.47156 182.3875 276.09656 181.99687Q276.72156 181.59062 277.48718 181.59062Q278.04968 181.59062 278.48718 181.825Q278.92468 182.05937 279.20593 182.43437L279.20593 179.35625L280.2528 179.35625L280.2528 187.95L279.26843 187.95ZM275.9403 184.84062Q275.9403 186.04375 276.4403 186.6375Q276.9403 187.21562 277.6278 187.21562Q278.3153 187.21562 278.79968 186.65312Q279.28406 186.09062 279.28406 184.93437Q279.28406 183.65312 278.78406 183.05937Q278.29968 182.46562 277.58093 182.46562Q276.8778 182.46562 276.40906 183.04375Q275.9403 183.60625 275.9403 184.84062ZM282.23718 180.575L282.23718 179.35625L283.29968 179.35625L283.29968 180.575L282.23718 180.575ZM282.23718 187.95L282.23718 181.73125L283.29968 181.73125L283.29968 187.95L282.23718 187.95ZM287.53406 187.0125L287.6903 187.93437Q287.23718 188.02812 286.89343 188.02812Q286.3153 188.02812 286.0028 187.85625Q285.6903 187.66875 285.54968 187.37187Q285.42468 187.075 285.42468 186.12187L285.42468 182.54375L284.65906 182.54375L284.65906 181.73125L285.42468 181.73125L285.42468 180.18437L286.47156 179.55937L286.47156 181.73125L287.53406 181.73125L287.53406 182.54375L286.47156 182.54375L286.47156 186.18437Q286.47156 186.6375 286.51843 186.7625Q286.58093 186.8875 286.70593 186.96562Q286.83093 187.04375 287.0653 187.04375Q287.2528 187.04375 287.53406 187.0125Z" fill-rule="nonzero"/><path fill="#999999" d="M11.128125 54.55L11.128125 44.534374L14.909375 44.534374Q15.909375 44.534374 16.440624 44.628124Q17.175 44.753124 17.675 45.096874Q18.175 45.440624 18.471874 46.065624Q18.784374 46.675 18.784374 47.425Q18.784374 48.70625 17.971874 49.596874Q17.159374 50.471874 15.034375 50.471874L12.45625 50.471874L12.45625 54.55L11.128125 54.55ZM12.45625 49.3L15.05 49.3Q16.33125 49.3 16.8625 48.815624Q17.409374 48.33125 17.409374 47.471874Q17.409374 46.83125 17.096874 46.39375Q16.784374 45.940624 16.253124 45.8Q15.925 45.70625 15.01875 45.70625L12.45625 45.70625L12.45625 49.3ZM24.940624 52.20625L26.221874 52.3625Q25.909374 53.4875 25.096874 54.1125Q24.284374 54.721874 23.01875 54.721874Q21.425 54.721874 20.4875 53.7375Q19.565624 52.753124 19.565624 50.9875Q19.565624 49.14375 20.503124 48.14375Q21.45625 47.128124 22.95625 47.128124Q24.409374 47.128124 25.33125 48.128124Q26.253124 49.1125 26.253124 50.909374Q26.253124 51.01875 26.253124 51.2375L20.83125 51.2375Q20.909374 52.425 21.503124 53.065624Q22.1125 53.70625 23.034374 53.70625Q23.70625 53.70625 24.175 53.346874Q24.659374 52.9875 24.940624 52.20625ZM20.909374 50.221874L24.95625 50.221874Q24.878124 49.3 24.4875 48.846874Q23.909374 48.14375 22.971874 48.14375Q22.1125 48.14375 21.534374 48.70625Q20.971874 49.26875 20.909374 50.221874ZM27.51875 50.925Q27.51875 48.909374 28.64375 47.925Q29.565624 47.128124 30.925 47.128124Q32.409374 47.128124 33.3625 48.1125Q34.315624 49.08125 34.315624 50.815624Q34.315624 52.221874 33.89375 53.034374Q33.471874 53.83125 32.659374 54.284374Q31.8625 54.721874 30.925 54.721874Q29.39375 54.721874 28.45625 53.7375Q27.51875 52.753124 27.51875 50.925ZM28.784374 50.925Q28.784374 52.315624 29.39375 53.01875Q30.003124 53.70625 30.925 53.70625Q31.83125 53.70625 32.440624 53.003124Q33.05 52.3 33.05 50.878124Q33.05 49.534374 32.440624 48.846874Q31.83125 48.14375 30.925 48.14375Q30.003124 48.14375 29.39375 48.83125Q28.784374 49.51875 28.784374 50.925ZM35.971874 57.33125L35.971874 47.284374L37.096874 47.284374L37.096874 48.2375Q37.4875 47.675 37.9875 47.409374Q38.4875 47.128124 39.20625 47.128124Q40.128124 47.128124 40.83125 47.6125Q41.55 48.08125 41.909374 48.95625Q42.26875 49.83125 42.26875 50.8625Q42.26875 51.971874 41.8625 52.878124Q41.471874 53.76875 40.70625 54.253124Q39.95625 54.721874 39.1125 54.721874Q38.503124 54.721874 38.003124 54.45625Q37.51875 54.190624 37.20625 53.8L37.20625 57.33125L35.971874 57.33125ZM37.08125 50.95625Q37.08125 52.3625 37.64375 53.034374Q38.221874 53.70625 39.034374 53.70625Q39.846874 53.70625 40.425 53.01875Q41.01875 52.315624 41.01875 50.8625Q41.01875 49.471874 40.440624 48.784374Q39.878124 48.096874 39.08125 48.096874Q38.3 48.096874 37.690624 48.83125Q37.08125 49.565624 37.08125 50.95625ZM43.940624 54.55L43.940624 44.534374L45.175 44.534374L45.175 54.55L43.940624 54.55ZM51.940624 52.20625L53.221874 52.3625Q52.909374 53.4875 52.096874 54.1125Q51.284374 54.721874 50.01875 54.721874Q48.425 54.721874 47.4875 53.7375Q46.565624 52.753124 46.565624 50.9875Q46.565624 49.14375 47.503124 48.14375Q48.45625 47.128124 49.95625 47.128124Q51.409374 47.128124 52.33125 48.128124Q53.253124 49.1125 53.253124 50.909374Q53.253124 51.01875 53.253124 51.2375L47.83125 51.2375Q47.909374 52.425 48.503124 53.065624Q49.1125 53.70625 50.034374 53.70625Q50.70625 53.70625 51.175 53.346874Q51.659374 52.9875 51.940624 52.20625ZM47.909374 50.221874L51.95625 50.221874Q51.878124 49.3 51.4875 48.846874Q50.909374 48.14375 49.971874 48.14375Q49.1125 48.14375 48.534374 48.70625Q47.971874 49.26875 47.909374 50.221874ZM61.659374 53.45625L61.83125 54.534374Q61.315624 54.64375 60.909374 54.64375Q60.2375 54.64375 59.8625 54.440624Q59.503124 54.221874 59.346874 53.878124Q59.20625 53.534374 59.20625 52.425L59.20625 48.253124L58.3 48.253124L58.3 47.284374L59.20625 47.284374L59.20625 45.4875L60.425 44.753124L60.425 47.284374L61.659374 47.284374L61.659374 48.253124L60.425 48.253124L60.425 52.4875Q60.425 53.01875 60.4875 53.175Q60.55 53.315624 60.690624 53.409374Q60.846874 53.503124 61.1125 53.503124Q61.33125 53.503124 61.659374 53.45625ZM62.971874 54.55L62.971874 44.534374L64.20625 44.534374L64.20625 48.128124Q65.06563 47.128124 66.37813 47.128124Q67.19063 47.128124 67.78438 47.45625Q68.37813 47.76875 68.62813 48.33125Q68.89375 48.878124 68.89375 49.95625L68.89375 54.55L67.65938 54.55L67.65938 49.95625Q67.65938 49.01875 67.25313 48.6125Q66.8625 48.190624 66.12813 48.190624Q65.58125 48.190624 65.09688 48.471874Q64.6125 48.753124 64.40938 49.2375Q64.20625 49.721874 64.20625 50.58125L64.20625 54.55L62.971874 54.55ZM75.70625 53.659374Q75.03438 54.2375 74.39375 54.4875Q73.76875 54.721874 73.03438 54.721874Q71.84688 54.721874 71.19063 54.14375Q70.55 53.55 70.55 52.628124Q70.55 52.096874 70.78438 51.659374Q71.03438 51.221874 71.425 50.95625Q71.83125 50.690624 72.31563 50.55Q72.675 50.45625 73.40938 50.3625Q74.90938 50.190624 75.6125 49.940624Q75.6125 49.690624 75.6125 49.628124Q75.6125 48.8625 75.26875 48.565624Q74.8 48.14375 73.8625 48.14375Q73.00313 48.14375 72.58125 48.45625Q72.175 48.753124 71.97188 49.51875L70.76875 49.3625Q70.925 48.58125 71.3 48.1125Q71.69063 47.64375 72.39375 47.39375Q73.1125 47.128124 74.05 47.128124Q74.97188 47.128124 75.55 47.346874Q76.12813 47.565624 76.39375 47.89375Q76.675 48.221874 76.78438 48.7375Q76.84688 49.05 76.84688 49.8625L76.84688 51.503124Q76.84688 53.221874 76.925 53.675Q77.00313 54.128124 77.2375 54.55L75.95625 54.55Q75.76875 54.159374 75.70625 53.659374ZM75.6125 50.909374Q74.94063 51.175 73.59688 51.378124Q72.84688 51.4875 72.51875 51.628124Q72.20625 51.753124 72.03438 52.01875Q71.8625 52.284374 71.8625 52.596874Q71.8625 53.096874 72.2375 53.425Q72.6125 53.753124 73.33125 53.753124Q74.05 53.753124 74.59688 53.440624Q75.14375 53.128124 75.40938 52.58125Q75.6125 52.175 75.6125 51.3625L75.6125 50.909374ZM81.65938 53.45625L81.83125 54.534374Q81.31563 54.64375 80.90938 54.64375Q80.2375 54.64375 79.8625 54.440624Q79.50313 54.221874 79.34688 53.878124Q79.20625 53.534374 79.20625 52.425L79.20625 48.253124L78.3 48.253124L78.3 47.284374L79.20625 47.284374L79.20625 45.4875L80.425 44.753124L80.425 47.284374L81.65938 47.284374L81.65938 48.253124L80.425 48.253124L80.425 52.4875Q80.425 53.01875 80.4875 53.175Q80.55 53.315624 80.69063 53.409374Q80.84688 53.503124 81.1125 53.503124Q81.33125 53.503124 81.65938 53.45625ZM86.4875 52.378124L87.69063 52.190624Q87.8 52.925 88.26875 53.315624Q88.7375 53.70625 89.58125 53.70625Q90.425 53.70625 90.83125 53.3625Q91.25313 53.01875 91.25313 52.55Q91.25313 52.128124 90.87813 51.89375Q90.62813 51.721874 89.62813 51.471874Q88.26875 51.128124 87.7375 50.878124Q87.22188 50.628124 86.95625 50.190624Q86.69063 49.753124 86.69063 49.221874Q86.69063 48.7375 86.90938 48.33125Q87.12813 47.909374 87.51875 47.628124Q87.8 47.425 88.28438 47.284374Q88.78438 47.128124 89.3625 47.128124Q90.20625 47.128124 90.84688 47.378124Q91.50313 47.6125 91.81563 48.034374Q92.12813 48.45625 92.2375 49.159374L91.03438 49.33125Q90.95625 48.76875 90.55 48.45625Q90.15938 48.14375 89.44063 48.14375Q88.59688 48.14375 88.2375 48.425Q87.87813 48.690624 87.87813 49.08125Q87.87813 49.315624 88.01875 49.503124Q88.175 49.70625 88.50313 49.83125Q88.675 49.89375 89.58125 50.14375Q90.89375 50.503124 91.40938 50.721874Q91.925 50.940624 92.20625 51.3625Q92.50313 51.784374 92.50313 52.409374Q92.50313 53.034374 92.14375 53.58125Q91.8 54.1125 91.1125 54.425Q90.44063 54.721874 89.58125 54.721874Q88.175 54.721874 87.425 54.128124Q86.69063 53.534374 86.4875 52.378124ZM98.70625 53.659374Q98.03438 54.2375 97.39375 54.4875Q96.76875 54.721874 96.03438 54.721874Q94.84688 54.721874 94.19063 54.14375Q93.55 53.55 93.55 52.628124Q93.55 52.096874 93.78438 51.659374Q94.03438 51.221874 94.425 50.95625Q94.83125 50.690624 95.31563 50.55Q95.675 50.45625 96.40938 50.3625Q97.90938 50.190624 98.6125 49.940624Q98.6125 49.690624 98.6125 49.628124Q98.6125 48.8625 98.26875 48.565624Q97.8 48.14375 96.8625 48.14375Q96.00313 48.14375 95.58125 48.45625Q95.175 48.753124 94.97188 49.51875L93.76875 49.3625Q93.925 48.58125 94.3 48.1125Q94.69063 47.64375 95.39375 47.39375Q96.1125 47.128124 97.05 47.128124Q97.97188 47.128124 98.55 47.346874Q99.12813 47.565624 99.39375 47.89375Q99.675 48.221874 99.78438 48.7375Q99.84688 49.05 99.84688 49.8625L99.84688 51.503124Q99.84688 53.221874 99.925 53.675Q100.00313 54.128124 100.2375 54.55L98.95625 54.55Q98.76875 54.159374 98.70625 53.659374ZM98.6125 50.909374Q97.94063 51.175 96.59688 51.378124Q95.84688 51.4875 95.51875 51.628124Q95.20625 51.753124 95.03438 52.01875Q94.8625 52.284374 94.8625 52.596874Q94.8625 53.096874 95.2375 53.425Q95.6125 53.753124 96.33125 53.753124Q97.05 53.753124 97.59688 53.440624Q98.14375 53.128124 98.40938 52.58125Q98.6125 52.175 98.6125 51.3625L98.6125 50.909374ZM103.31563 54.55L101.09688 47.284374L102.3625 47.284374L103.51875 51.4875L103.95625 53.034374Q103.97188 52.925 104.33125 51.534374L105.4875 47.284374L106.7375 47.284374L107.83125 51.503124L108.19063 52.89375L108.6125 51.4875L109.8625 47.284374L111.05 47.284374L108.78438 54.55L107.50313 54.55L106.34688 50.20625L106.06563 48.971874L104.59688 54.55L103.31563 54.55ZM117.65938 53.45625L117.83125 54.534374Q117.31563 54.64375 116.90938 54.64375Q116.2375 54.64375 115.8625 54.440624Q115.50313 54.221874 115.34688 53.878124Q115.20625 53.534374 115.20625 52.425L115.20625 48.253124L114.3 48.253124L114.3 47.284374L115.20625 47.284374L115.20625 45.4875L116.425 44.753124L116.425 47.284374L117.65938 47.284374L117.65938 48.253124L116.425 48.253124L116.425 52.4875Q116.425 53.01875 116.4875 53.175Q116.55 53.315624 116.69063 53.409374Q116.84688 53.503124 117.1125 53.503124Q117.33125 53.503124 117.65938 53.45625ZM118.97188 54.55L118.97188 44.534374L120.20625 44.534374L120.20625 48.128124Q121.06563 47.128124 122.37813 47.128124Q123.19063 47.128124 123.78438 47.45625Q124.37813 47.76875 124.62813 48.33125Q124.89375 48.878124 124.89375 49.95625L124.89375 54.55L123.65938 54.55L123.65938 49.95625Q123.65938 49.01875 123.25313 48.6125Q122.8625 48.190624 122.12813 48.190624Q121.58125 48.190624 121.09688 48.471874Q120.6125 48.753124 120.40938 49.2375Q120.20625 49.721874 120.20625 50.58125L120.20625 54.55L118.97188 54.55ZM131.94063 52.20625L133.22188 52.3625Q132.90938 53.4875 132.09688 54.1125Q131.28438 54.721874 130.01875 54.721874Q128.425 54.721874 127.4875 53.7375Q126.56563 52.753124 126.56563 50.9875Q126.56563 49.14375 127.50313 48.14375Q128.45625 47.128124 129.95625 47.128124Q131.40938 47.128124 132.33125 48.128124Q133.25313 49.1125 133.25313 50.909374Q133.25313 51.01875 133.25313 51.2375L127.83125 51.2375Q127.90938 52.425 128.50313 53.065624Q129.1125 53.70625 130.03438 53.70625Q130.70625 53.70625 131.175 53.346874Q131.65938 52.9875 131.94063 52.20625ZM127.90938 50.221874L131.95625 50.221874Q131.87813 49.3 131.4875 48.846874Q130.90938 48.14375 129.97188 48.14375Q129.1125 48.14375 128.53438 48.70625Q127.97188 49.26875 127.90938 50.221874ZM143.70625 51.89375L144.925 52.05Q144.72188 53.3 143.89375 54.01875Q143.08125 54.721874 141.89375 54.721874Q140.40938 54.721874 139.50313 53.753124Q138.59688 52.76875 138.59688 50.940624Q138.59688 49.76875 138.9875 48.89375Q139.37813 48.003124 140.175 47.565624Q140.97188 47.128124 141.90938 47.128124Q143.08125 47.128124 143.83125 47.721874Q144.59688 48.315624 144.8 49.425L143.6125 49.6125Q143.44063 48.878124 143.00313 48.51875Q142.56563 48.14375 141.95625 48.14375Q141.01875 48.14375 140.44063 48.815624Q139.8625 49.471874 139.8625 50.909374Q139.8625 52.378124 140.425 53.05Q140.9875 53.70625 141.87813 53.70625Q142.6125 53.70625 143.09688 53.26875Q143.58125 52.815624 143.70625 51.89375ZM145.51875 50.925Q145.51875 48.909374 146.64375 47.925Q147.56563 47.128124 148.925 47.128124Q150.40938 47.128124 151.3625 48.1125Q152.31563 49.08125 152.31563 50.815624Q152.31563 52.221874 151.89375 53.034374Q151.47188 53.83125 150.65938 54.284374Q149.8625 54.721874 148.925 54.721874Q147.39375 54.721874 146.45625 53.7375Q145.51875 52.753124 145.51875 50.925ZM146.78438 50.925Q146.78438 52.315624 147.39375 53.01875Q148.00313 53.70625 148.925 53.70625Q149.83125 53.70625 150.44063 53.003124Q151.05 52.3 151.05 50.878124Q151.05 49.534374 150.44063 48.846874Q149.83125 48.14375 148.925 48.14375Q148.00313 48.14375 147.39375 48.83125Q146.78438 49.51875 146.78438 50.925ZM153.97188 54.55L153.97188 47.284374L155.08125 47.284374L155.08125 48.315624Q155.87813 47.128124 157.39375 47.128124Q158.05 47.128124 158.59688 47.3625Q159.14375 47.596874 159.40938 47.9875Q159.69063 48.3625 159.8 48.89375Q159.87813 49.2375 159.87813 50.08125L159.87813 54.55L158.64375 54.55L158.64375 50.128124Q158.64375 49.378124 158.50313 49.01875Q158.3625 48.64375 157.9875 48.425Q157.62813 48.190624 157.12813 48.190624Q156.34688 48.190624 155.76875 48.690624Q155.20625 49.190624 155.20625 50.58125L155.20625 54.55L153.97188 54.55ZM164.65938 53.45625L164.83125 54.534374Q164.31563 54.64375 163.90938 54.64375Q163.2375 54.64375 162.8625 54.440624Q162.50313 54.221874 162.34688 53.878124Q162.20625 53.534374 162.20625 52.425L162.20625 48.253124L161.3 48.253124L161.3 47.284374L162.20625 47.284374L162.20625 45.4875L163.425 44.753124L163.425 47.284374L164.65938 47.284374L164.65938 48.253124L163.425 48.253124L163.425 52.4875Q163.425 53.01875 163.4875 53.175Q163.55 53.315624 163.69063 53.409374Q163.84688 53.503124 164.1125 53.503124Q164.33125 53.503124 164.65938 53.45625ZM170.94063 52.20625L172.22188 52.3625Q171.90938 53.4875 171.09688 54.1125Q170.28438 54.721874 169.01875 54.721874Q167.425 54.721874 166.4875 53.7375Q165.56563 52.753124 165.56563 50.9875Q165.56563 49.14375 166.50313 48.14375Q167.45625 47.128124 168.95625 47.128124Q170.40938 47.128124 171.33125 48.128124Q172.25313 49.1125 172.25313 50.909374Q172.25313 51.01875 172.25313 51.2375L166.83125 51.2375Q166.90938 52.425 167.50313 53.065624Q168.1125 53.70625 169.03438 53.70625Q169.70625 53.70625 170.175 53.346874Q170.65938 52.9875 170.94063 52.20625ZM166.90938 50.221874L170.95625 50.221874Q170.87813 49.3 170.4875 48.846874Q169.90938 48.14375 168.97188 48.14375Q168.1125 48.14375 167.53438 48.70625Q166.97188 49.26875 166.90938 50.221874ZM173.97188 54.55L173.97188 47.284374L175.08125 47.284374L175.08125 48.315624Q175.87813 47.128124 177.39375 47.128124Q178.05 47.128124 178.59688 47.3625Q179.14375 47.596874 179.40938 47.9875Q179.69063 48.3625 179.8 48.89375Q179.87813 49.2375 179.87813 50.08125L179.87813 54.55L178.64375 54.55L178.64375 50.128124Q178.64375 49.378124 178.50313 49.01875Q178.3625 48.64375 177.9875 48.425Q177.62813 48.190624 177.12813 48.190624Q176.34688 48.190624 175.76875 48.690624Q175.20625 49.190624 175.20625 50.58125L175.20625 54.55L173.97188 54.55ZM184.65938 53.45625L184.83125 54.534374Q184.31563 54.64375 183.90938 54.64375Q183.2375 54.64375 182.8625 54.440624Q182.50313 54.221874 182.34688 53.878124Q182.20625 53.534374 182.20625 52.425L182.20625 48.253124L181.3 48.253124L181.3 47.284374L182.20625 47.284374L182.20625 45.4875L183.425 44.753124L183.425 47.284374L184.65938 47.284374L184.65938 48.253124L183.425 48.253124L183.425 52.4875Q183.425 53.01875 183.4875 53.175Q183.55 53.315624 183.69063 53.409374Q183.84688 53.503124 184.1125 53.503124Q184.33125 53.503124 184.65938 53.45625ZM189.51875 50.925Q189.51875 48.909374 190.64375 47.925Q191.56563 47.128124 192.925 47.128124Q194.40938 47.128124 195.3625 48.1125Q196.31563 49.08125 196.31563 50.815624Q196.31563 52.221874 195.89375 53.034374Q195.47188 53.83125 194.65938 54.284374Q193.8625 54.721874 192.925 54.721874Q191.39375 54.721874 190.45625 53.7375Q189.51875 52.753124 189.51875 50.925ZM190.78438 50.925Q190.78438 52.315624 191.39375 53.01875Q192.00313 53.70625 192.925 53.70625Q193.83125 53.70625 194.44063 53.003124Q195.05 52.3 195.05 50.878124Q195.05 49.534374 194.44063 48.846874Q193.83125 48.14375 192.925 48.14375Q192.00313 48.14375 191.39375 48.83125Q190.78438 49.51875 190.78438 50.925ZM198.26875 54.55L198.26875 48.253124L197.175 48.253124L197.175 47.284374L198.26875 47.284374L198.26875 46.51875Q198.26875 45.784374 198.39375 45.425Q198.58125 44.95625 199.01875 44.659374Q199.47188 44.3625 200.28438 44.3625Q200.8 44.3625 201.425 44.4875L201.2375 45.55Q200.8625 45.4875 200.51875 45.4875Q199.95625 45.4875 199.72188 45.721874Q199.4875 45.95625 199.4875 46.6125L199.4875 47.284374L200.90938 47.284374L200.90938 48.253124L199.4875 48.253124L199.4875 54.55L198.26875 54.55ZM208.65938 53.45625L208.83125 54.534374Q208.31563 54.64375 207.90938 54.64375Q207.2375 54.64375 206.8625 54.440624Q206.50313 54.221874 206.34688 53.878124Q206.20625 53.534374 206.20625 52.425L206.20625 48.253124L205.3 48.253124L205.3 47.284374L206.20625 47.284374L206.20625 45.4875L207.425 44.753124L207.425 47.284374L208.65938 47.284374L208.65938 48.253124L207.425 48.253124L207.425 52.4875Q207.425 53.01875 207.4875 53.175Q207.55 53.315624 207.69063 53.409374Q207.84688 53.503124 208.1125 53.503124Q208.33125 53.503124 208.65938 53.45625ZM209.97188 54.55L209.97188 44.534374L211.20625 44.534374L211.20625 48.128124Q212.06563 47.128124 213.37813 47.128124Q214.19063 47.128124 214.78438 47.45625Q215.37813 47.76875 215.62813 48.33125Q215.89375 48.878124 215.89375 49.95625L215.89375 54.55L214.65938 54.55L214.65938 49.95625Q214.65938 49.01875 214.25313 48.6125Q213.8625 48.190624 213.12813 48.190624Q212.58125 48.190624 212.09688 48.471874Q211.6125 48.753124 211.40938 49.2375Q211.20625 49.721874 211.20625 50.58125L211.20625 54.55L209.97188 54.55ZM222.94063 52.20625L224.22188 52.3625Q223.90938 53.4875 223.09688 54.1125Q222.28438 54.721874 221.01875 54.721874Q219.425 54.721874 218.4875 53.7375Q217.56563 52.753124 217.56563 50.9875Q217.56563 49.14375 218.50313 48.14375Q219.45625 47.128124 220.95625 47.128124Q222.40938 47.128124 223.33125 48.128124Q224.25313 49.1125 224.25313 50.909374Q224.25313 51.01875 224.25313 51.2375L218.83125 51.2375Q218.90938 52.425 219.50313 53.065624Q220.1125 53.70625 221.03438 53.70625Q221.70625 53.70625 222.175 53.346874Q222.65938 52.9875 222.94063 52.20625ZM218.90938 50.221874L222.95625 50.221874Q222.87813 49.3 222.4875 48.846874Q221.90938 48.14375 220.97188 48.14375Q220.1125 48.14375 219.53438 48.70625Q218.97188 49.26875 218.90938 50.221874ZM229.97188 57.33125L229.97188 47.284374L231.09688 47.284374L231.09688 48.2375Q231.4875 47.675 231.9875 47.409374Q232.4875 47.128124 233.20625 47.128124Q234.12813 47.128124 234.83125 47.6125Q235.55 48.08125 235.90938 48.95625Q236.26875 49.83125 236.26875 50.8625Q236.26875 51.971874 235.8625 52.878124Q235.47188 53.76875 234.70625 54.253124Q233.95625 54.721874 233.1125 54.721874Q232.50313 54.721874 232.00313 54.45625Q231.51875 54.190624 231.20625 53.8L231.20625 57.33125L229.97188 57.33125ZM231.08125 50.95625Q231.08125 52.3625 231.64375 53.034374Q232.22188 53.70625 233.03438 53.70625Q233.84688 53.70625 234.425 53.01875Q235.01875 52.315624 235.01875 50.8625Q235.01875 49.471874 234.44063 48.784374Q233.87813 48.096874 233.08125 48.096874Q232.3 48.096874 231.69063 48.83125Q231.08125 49.565624 231.08125 50.95625ZM237.51875 50.925Q237.51875 48.909374 238.64375 47.925Q239.56563 47.128124 240.925 47.128124Q242.40938 47.128124 243.3625 48.1125Q244.31563 49.08125 244.31563 50.815624Q244.31563 52.221874 243.89375 53.034374Q243.47188 53.83125 242.65938 54.284374Q241.8625 54.721874 240.925 54.721874Q239.39375 54.721874 238.45625 53.7375Q237.51875 52.753124 237.51875 50.925ZM238.78438 50.925Q238.78438 52.315624 239.39375 53.01875Q240.00313 53.70625 240.925 53.70625Q241.83125 53.70625 242.44063 53.003124Q243.05 52.3 243.05 50.878124Q243.05 49.534374 242.44063 48.846874Q241.83125 48.14375 240.925 48.14375Q240.00313 48.14375 239.39375 48.83125Q238.78438 49.51875 238.78438 50.925ZM245.4875 52.378124L246.69063 52.190624Q246.8 52.925 247.26875 53.315624Q247.7375 53.70625 248.58125 53.70625Q249.425 53.70625 249.83125 53.3625Q250.25313 53.01875 250.25313 52.55Q250.25313 52.128124 249.87813 51.89375Q249.62813 51.721874 248.62813 51.471874Q247.26875 51.128124 246.7375 50.878124Q246.22188 50.628124 245.95625 50.190624Q245.69063 49.753124 245.69063 49.221874Q245.69063 48.7375 245.90938 48.33125Q246.12813 47.909374 246.51875 47.628124Q246.8 47.425 247.28438 47.284374Q247.78438 47.128124 248.3625 47.128124Q249.20625 47.128124 249.84688 47.378124Q250.50313 47.6125 250.81563 48.034374Q251.12813 48.45625 251.2375 49.159374L250.03438 49.33125Q249.95625 48.76875 249.55 48.45625Q249.15938 48.14375 248.44063 48.14375Q247.59688 48.14375 247.2375 48.425Q246.87813 48.690624 246.87813 49.08125Q246.87813 49.315624 247.01875 49.503124Q247.175 49.70625 247.50313 49.83125Q247.675 49.89375 248.58125 50.14375Q249.89375 50.503124 250.40938 50.721874Q250.925 50.940624 251.20625 51.3625Q251.50313 51.784374 251.50313 52.409374Q251.50313 53.034374 251.14375 53.58125Q250.8 54.1125 250.1125 54.425Q249.44063 54.721874 248.58125 54.721874Q247.175 54.721874 246.425 54.128124Q245.69063 53.534374 245.4875 52.378124ZM255.65938 53.45625L255.83125 54.534374Q255.31563 54.64375 254.90938 54.64375Q254.2375 54.64375 253.8625 54.440624Q253.50313 54.221874 253.34688 53.878124Q253.20625 53.534374 253.20625 52.425L253.20625 48.253124L252.3 48.253124L252.3 47.284374L253.20625 47.284374L253.20625 45.4875L254.425 44.753124L254.425 47.284374L255.65938 47.284374L255.65938 48.253124L254.425 48.253124L254.425 52.4875Q254.425 53.01875 254.4875 53.175Q254.55 53.315624 254.69063 53.409374Q254.84688 53.503124 255.1125 53.503124Q255.33125 53.503124 255.65938 53.45625Z" fill-rule="nonzero"/><path fill="#757575" d="M15.690625 29.05L10.14375 14.737499L12.190625 14.737499L15.909375 25.128124Q16.3625 26.378124 16.659374 27.471874Q16.9875 26.3 17.440624 25.128124L21.3 14.737499L23.2375 14.737499L17.628124 29.05L15.690625 29.05ZM24.378124 16.753124L24.378124 14.737499L26.14375 14.737499L26.14375 16.753124L24.378124 16.753124ZM24.378124 29.05L24.378124 18.675L26.14375 18.675L26.14375 29.05L24.378124 29.05ZM35.471874 25.70625L37.284374 25.940624Q36.8625 27.51875 35.690624 28.409374Q34.534374 29.284374 32.721874 29.284374Q30.45625 29.284374 29.1125 27.89375Q27.784374 26.4875 27.784374 23.95625Q27.784374 21.33125 29.128124 19.89375Q30.471874 18.440624 32.628124 18.440624Q34.70625 18.440624 36.01875 19.8625Q37.346874 21.26875 37.346874 23.846874Q37.346874 24.003124 37.33125 24.315624L29.596874 24.315624Q29.690624 26.01875 30.565624 26.925Q31.440624 27.83125 32.7375 27.83125Q33.70625 27.83125 34.378124 27.33125Q35.065624 26.815624 35.471874 25.70625ZM29.690624 22.8625L35.4875 22.8625Q35.378124 21.565624 34.83125 20.909374Q33.9875 19.89375 32.64375 19.89375Q31.440624 19.89375 30.6125 20.70625Q29.784374 21.503124 29.690624 22.8625ZM41.284374 29.05L38.1125 18.675L39.925 18.675L41.58125 24.659374L42.190624 26.89375Q42.2375 26.721874 42.721874 24.753124L44.378124 18.675L46.190624 18.675L47.7375 24.690624L48.253124 26.675L48.846874 24.675L50.628124 18.675L52.33125 18.675L49.096874 29.05L47.26875 29.05L45.6125 22.83125L45.221874 21.065624L43.1125 29.05L41.284374 29.05ZM53.659374 25.95625L55.409374 25.675Q55.55 26.721874 56.221874 27.284374Q56.89375 27.83125 58.096874 27.83125Q59.3 27.83125 59.878124 27.346874Q60.471874 26.846874 60.471874 26.190624Q60.471874 25.596874 59.95625 25.253124Q59.596874 25.01875 58.159374 24.659374Q56.221874 24.159374 55.471874 23.815624Q54.7375 23.45625 54.346874 22.83125Q53.95625 22.190624 53.95625 21.425Q53.95625 20.7375 54.26875 20.14375Q54.596874 19.55 55.14375 19.159374Q55.55 18.8625 56.253124 18.659374Q56.971874 18.440624 57.784374 18.440624Q59.003124 18.440624 59.925 18.8Q60.846874 19.14375 61.284374 19.753124Q61.721874 20.346874 61.89375 21.346874L60.175 21.58125Q60.05 20.784374 59.4875 20.346874Q58.925 19.89375 57.909374 19.89375Q56.690624 19.89375 56.175 20.3Q55.659374 20.690624 55.659374 21.221874Q55.659374 21.565624 55.878124 21.846874Q56.08125 22.128124 56.55 22.315624Q56.815624 22.409374 58.096874 22.753124Q59.971874 23.253124 60.70625 23.58125Q61.440624 23.89375 61.8625 24.503124Q62.284374 25.096874 62.284374 26.003124Q62.284374 26.878124 61.76875 27.659374Q61.253124 28.440624 60.284374 28.8625Q59.315624 29.284374 58.096874 29.284374Q56.08125 29.284374 55.01875 28.440624Q53.95625 27.596874 53.659374 25.95625Z" fill-rule="nonzero"/></svg>